<svg width="192" height="186" fill="none" xmlns="http://www.w3.org/2000/svg">
  <path d="M108.663 167.762H86.51v.123h22.153v-.123zM181.47 12.545h-66.529v77.729h66.529V12.545z" fill="#E0E0E0"/>
  <path d="M183.276 12.545h-67.49v77.729h67.49V12.545z" fill="#F0F0F0"/>
  <path d="M181.47 90.274h-66.529v4.356h66.529v-4.356z" fill="#E0E0E0"/>
  <path d="M191.546 90.274H128.01v4.356h63.536v-4.356z" fill="#F0F0F0"/>
  <path d="M180.748 86.975V15.839h-62.429v71.136h62.429z" fill="#F5F5F5"/>
  <path d="M127.297 86.975l14.86-71.13h19.478l-14.86 71.13h-19.478zM149.929 86.975l14.855-71.13h8.797l-14.855 71.13h-8.797z" fill="#FAFAFA"/>
  <path d="M180.748 79.53V15.394h-.323V79.53h.323z" fill="#E0E0E0"/>
  <path d="M113.042 12.433v27.675h7.323s13.117-8.581 16.11-26.236a2.958 2.958 0 00-.649-2.383 2.932 2.932 0 00-2.232-1.044h-18.55a1.98 1.98 0 00-1.848 1.223 2.004 2.004 0 00-.154.765zM113.042 84.469v-42.13h7.323s4.198 8.508 8.382 18.287a17.14 17.14 0 01-1.438 16.157 17.08 17.08 0 01-6.157 5.644 17.024 17.024 0 01-8.09 2.042h-.02z" fill="#D3DDE6"/>
  <path d="M120.13 40.107h-6.819a.733.733 0 00-.733.735v.763c0 .406.328.734.733.734h6.819a.733.733 0 00.733-.734v-.763a.733.733 0 00-.733-.735z" fill="#F0F0F0"/>
  <path d="M185.361 12.433v27.675h-7.323s-13.122-8.581-16.11-26.236a2.952 2.952 0 01.647-2.38 2.934 2.934 0 012.229-1.047h18.55a1.984 1.984 0 011.852 1.222c.102.243.154.503.155.766zM185.361 84.469v-42.13h-7.323s-4.198 8.508-8.387 18.287a17.166 17.166 0 001.465 16.154 17.108 17.108 0 006.157 5.642 17.054 17.054 0 008.088 2.047z" fill="#D3DDE6"/>
  <path d="M178.258 42.34h6.82a.733.733 0 00.732-.735v-.763a.733.733 0 00-.732-.734h-6.82a.733.733 0 00-.732.734v.763c0 .406.327.735.732.735z" fill="#F0F0F0"/>
  <path d="M23.638 56.177a16.01 16.01 0 01-11.155-4.805 16.096 16.096 0 01-4.597-11.267c0-4.214 1.65-8.26 4.597-11.267a16.011 16.011 0 0111.155-4.805h.976v32.144h-.976z" fill="#E0E0E0"/>
  <path d="M35.958 51.47c6.259-6.275 6.259-16.45 0-22.725-6.26-6.276-16.407-6.276-22.666 0-6.259 6.275-6.259 16.45 0 22.726 6.26 6.275 16.407 6.275 22.666 0z" fill="#D3DDE6"/>
  <path d="M24.623 52.227c6.676 0 12.088-5.426 12.088-12.12 0-6.693-5.412-12.119-12.087-12.119-6.676 0-12.088 5.426-12.088 12.12 0 6.693 5.412 12.119 12.088 12.119z" fill="#FAFAFA"/>
  <path d="M29.622 44.61l-5.911-4.135 1.874-9.158 1.611.332-1.655 8.091 5.024 3.515-.943 1.356zM101.99 95.594H81.042v68.086h20.948V95.594z" fill="#E0E0E0"/>
  <path d="M96.395 163.68h5.595v-9.398H90.532l5.863 9.398z" fill="#F0F0F0"/>
  <path d="M21.377 95.594H.43v68.086h20.947V95.594z" fill="#D3DDE6"/>
  <path d="M101.99 95.594H16.496v64.851h85.494v-64.85z" fill="#F0F0F0"/>
  <path d="M22.09 163.68h-5.595v-9.398h11.458l-5.863 9.398z" fill="#F0F0F0"/>
  <path d="M97.65 119.76H20.835v16.23H97.65v-16.23zM97.65 139.456H20.835v16.231H97.65v-16.231z" fill="#D3DDE6"/>
  <path d="M86.139 121.492H32.342c-.83 0-1.626-.33-2.213-.919a3.14 3.14 0 01-.916-2.218h60.045a3.143 3.143 0 01-.914 2.213 3.13 3.13 0 01-2.205.924z" fill="#F0F0F0"/>
  <path d="M97.65 100.063H20.835v16.231H97.65v-16.231z" fill="#D3DDE6"/>
  <path d="M86.139 101.811H32.342a3.122 3.122 0 01-2.214-.921 3.134 3.134 0 01-.915-2.222h60.046c0 .831-.329 1.628-.913 2.217a3.13 3.13 0 01-2.207.926zM86.139 141.194H32.342a3.133 3.133 0 01-2.213-.922 3.149 3.149 0 01-.916-2.221h60.045a3.152 3.152 0 01-.914 2.216 3.137 3.137 0 01-2.205.927z" fill="#F0F0F0"/>
  <path d="M176.769 163.68h-42.31l-3.457-48.825h42.311l3.456 48.825z" fill="#E0E0E0"/>
  <path d="M181.572 163.68h-45.805l-3.456-48.825h45.805l3.456 48.825z" fill="#D3DDE6"/>
  <path d="M139.335 159.833l-2.914-41.131h38.132l2.909 41.131h-38.127z" fill="#FAFAFA"/>
  <path d="M165.816 147.866c4.404-4.574 4.004-12.126-.894-16.866-4.898-4.741-12.439-4.876-16.843-.302-4.404 4.575-4.004 12.126.894 16.867 4.898 4.741 12.439 4.876 16.843.301z" fill="#D3DDE6"/>
  <path d="M62.081 95.594h12.8l.967-12.58H61.115l.966 12.58z" fill="#E6E6E6"/>
  <path d="M60.158 84.478H76.8l.478-4.243H59.685l.473 4.243z" fill="#E6E6E6"/>
  <path d="M97 185.785c52.276 0 94.654-2.481 94.654-5.541 0-3.06-42.378-5.541-94.653-5.541-52.275 0-94.653 2.481-94.653 5.541 0 3.06 42.378 5.541 94.653 5.541z" fill="#D3DDE6"/>
  <path d="M60.075 176.122h-3.578l-.357-8.301h3.579l.356 8.301zM81.55 176.122h-3.578l-1.797-8.301h3.579l1.796 8.301z" fill="#EBCBC8"/>
  <path d="M77.718 175.721h4.018a.312.312 0 01.308.245l.707 3.186a.533.533 0 01-.297.589.537.537 0 01-.23.048c-1.401-.025-2.085-.108-3.852-.108-1.084 0-3.324.117-4.828.117-1.504 0-1.694-1.493-1.084-1.625 2.759-.607 3.798-1.439 4.677-2.232a.854.854 0 01.581-.22zM56.521 175.721h3.905a.312.312 0 01.308.245l.703 3.186a.522.522 0 01-.285.588.512.512 0 01-.228.048c-1.41-.024-3.446-.107-5.218-.107-2.07 0-3.857.117-6.283.117-1.465 0-1.88-1.493-1.264-1.625 2.797-.617 5.081-.68 7.503-2.173.254-.174.552-.27.859-.279z" fill="#263238"/>
  <path d="M53.89 58.937l-4.828-1.914s-5.55 11.37-7.323 11.944c-2.377.783-7.264 2.936-10.217 3.362-.376.49-.977 1.958-.855 2.497 4.072 1.33 12.747-.44 14.543-1.84 4.125-3.192 8.68-14.049 8.68-14.049z" fill="#EBCBC8"/>
  <path d="M55.188 56.358c1.206 3.21-4.882 12.658-4.882 12.658L43.156 65.1a43.665 43.665 0 014.13-8.395c2.514-3.759 6.58-3.842 7.903-.347z" fill="#407BFF"/>
  <path opacity=".6" d="M55.188 56.358c1.206 3.21-4.882 12.658-4.882 12.658L43.156 65.1a43.665 43.665 0 014.13-8.395c2.514-3.759 6.58-3.842 7.903-.347z" fill="#FAFAFA"/>
  <path d="M55.296 56.779c-1.401-.666-2.973-.108-4.555 2.54-1.582 2.648-2.856 7.083-2.968 8.346l2.514 1.365s5.638-8.737 5.009-12.251z" fill="#407BFF"/>
  <path opacity=".4" d="M55.296 56.779c-1.401-.666-2.973-.108-4.555 2.54-1.582 2.648-2.856 7.083-2.968 8.346l2.514 1.365s5.638-8.737 5.009-12.251z" fill="#FAFAFA"/>
  <path d="M32.147 72.295l-4.033-1.664-1.367 4.376c1.618.245 3.264.245 4.882 0l.518-2.712z" fill="#EBCBC8"/>
  <path d="M25.18 70.528l.069 2.907 1.498 1.572 1.367-4.371-2.934-.108z" fill="#EBCBC8"/>
  <path d="M56.145 167.821l.18 4.283h3.58l-.186-4.283h-3.574zM79.754 167.821h-3.579l.928 4.283h3.578l-.927-4.283z" fill="#C49895"/>
  <path d="M50.941 53.906s-4.222 10.827-.21 30.998h19.127c.132-2.937-1.713-17.313 1.123-31.184a49.801 49.801 0 00-6.405-.813 70.412 70.412 0 00-8.133 0 35.691 35.691 0 00-5.502.999z" fill="#407BFF"/>
  <path opacity=".6" d="M50.941 53.906s-4.222 10.827-.21 30.998h19.127c.132-2.937-1.713-17.313 1.123-31.184a49.801 49.801 0 00-6.405-.813 70.412 70.412 0 00-8.133 0 35.691 35.691 0 00-5.502.999z" fill="#FAFAFA"/>
  <path d="M66.822 57.146c-.318 2.28.4 7.743 2.567 14.058A92.132 92.132 0 0170.712 55.1v-.03c-1.26-.127-3.583-.063-3.89 2.076z" fill="#407BFF"/>
  <path opacity=".4" d="M66.822 57.146c-.318 2.28.4 7.743 2.567 14.058A92.132 92.132 0 0170.712 55.1v-.03c-1.26-.127-3.583-.063-3.89 2.076z" fill="#FAFAFA"/>
  <path d="M55.208 53.05c.4-.055.815-.104 1.235-.143a70.412 70.412 0 018.133 0c.342 0 .683.04 1.025.069l-.117.293c-.054.133-1.357 3.28-6.834 3.28-.718 0-2.89 0-3.574-1.469a2.367 2.367 0 01.132-2.03z" fill="#FAFAFA"/>
  <path d="M63.512 45.281c-.513 2.624-.767 5.874 1.064 7.626 0 0-1.054 2.663-5.917 2.663-4.442 0-2.216-2.663-2.216-2.663 2.93-.695 2.763-4.312 2.255-6.363l4.814-1.263z" fill="#EBCBC8"/>
  <path d="M63.17 47.719l-3.446-1.435-.445.118a7.49 7.49 0 00.542 1.752 6.35 6.35 0 003.657 2.937 8.99 8.99 0 01-.308-3.372zM68.398 45.81a3.413 3.413 0 01-2.328 1.11c-1.181.055-1.508-1.071-.976-2.05.488-.881 1.708-1.958 2.787-1.561a1.519 1.519 0 01.903 1.858 1.522 1.522 0 01-.386.643z" fill="#C49895"/>
  <path d="M67.818 37.552c1.61 1.033 1.708 6.075-.703 6.809-2.412.734-2.334-8.776.703-6.809z" fill="#263238"/>
  <path d="M58.616 40.137c-.391 3.539-.796 5.59.659 7.69 2.182 3.162 6.77 2.31 8.206-1.043 1.294-3.015 1.713-8.292-1.465-10.28a4.834 4.834 0 00-6.559 1.34c-.47.68-.76 1.469-.841 2.293z" fill="#EBCBC8"/>
  <path d="M58.03 42.31c.942.49 2.113-1.82 2.358-4.239 1.6 1.522 10.74 1.332 9.358-.871-2.138-3.426-9.92-4.16-11.135-1.904-2.222.098-2.724 5.942-.581 7.014z" fill="#263238"/>
  <path d="M56.375 43.72c.34.828.992 1.488 1.816 1.835 1.098.446 1.781-.49 1.591-1.61-.176-.98-.952-2.447-2.104-2.408a1.51 1.51 0 00-1.242.737 1.52 1.52 0 00-.061 1.446z" fill="#EBCBC8"/>
  <path d="M50.731 84.904s-.488 26.813-.107 37.748c.405 11.376 4.37 48.62 4.37 48.62h6.057s.225-36.579.488-47.753c.293-12.178 1.763-38.615 1.763-38.615h-12.57z" fill="#407BFF"/>
  <path d="M61.452 169.412c.03 0 0 1.987 0 1.987h-6.986l-.293-2.232 7.279.245z" fill="#407BFF"/>
  <path opacity=".6" d="M61.452 169.412c.03 0 0 1.987 0 1.987h-6.986l-.293-2.232 7.279.245z" fill="#FAFAFA"/>
  <path d="M59.099 92.021c.112 13.304.913 21.385 2.553 27.9.21-6.363.605-14.738.976-21.708l-3.53-6.192z" fill="#407BFF"/>
  <path opacity=".2" d="M59.099 92.021c.112 13.304.913 21.385 2.553 27.9.21-6.363.605-14.738.976-21.708l-3.53-6.192z" fill="#000"/>
  <path d="M57.517 84.904s4.057 27.411 6.288 37.69c2.44 11.257 11.633 48.697 11.633 48.697h6.551s-6.063-36.544-7.454-47.674c-1.514-12.086-4.677-38.669-4.677-38.669l-12.341-.044z" fill="#407BFF"/>
  <path d="M81.99 169.563c.024 0 .326 1.836.326 1.836h-7.2l-.64-2.11 7.513.274z" fill="#407BFF"/>
  <path opacity=".6" d="M81.99 169.563c.024 0 .326 1.836.326 1.836h-7.2l-.64-2.11 7.513.274z" fill="#FAFAFA"/>
  <path d="M79.348 167.4a.083.083 0 01-.04-.017.077.077 0 01-.023-.037c-.054-.333-5.522-33.328-6.771-43.328-1.358-10.852-4.218-34.92-4.248-35.164a.06.06 0 01.014-.043.058.058 0 01.04-.02.063.063 0 01.069.053c.029.24 2.885 24.307 4.247 35.159 1.25 10 6.717 42.99 6.77 43.323a.059.059 0 01-.027.061.057.057 0 01-.021.008l-.01.005z" fill="#407BFF"/>
  <path opacity=".2" d="M79.348 167.4a.083.083 0 01-.04-.017.077.077 0 01-.023-.037c-.054-.333-5.522-33.328-6.771-43.328-1.358-10.852-4.218-34.92-4.248-35.164a.06.06 0 01.014-.043.058.058 0 01.04-.02.063.063 0 01.069.053c.029.24 2.885 24.307 4.247 35.159 1.25 10 6.717 42.99 6.77 43.323a.059.059 0 01-.027.061.057.057 0 01-.021.008l-.01.005z" fill="#000"/>
  <path d="M63.746 42.036c-.054.284.059.538.244.572.186.035.376-.17.425-.46.049-.288-.059-.538-.244-.572-.186-.035-.366.171-.425.46zM66.958 42.584c-.048.284.059.538.245.573.185.034.375-.172.43-.46.053-.29-.064-.539-.25-.573-.185-.034-.376.181-.425.46z" fill="#263238"/>
  <path d="M65.909 42.555c.19.929.505 1.828.937 2.672a1.65 1.65 0 01-1.401 0l.464-2.672z" fill="#C59998"/>
  <path d="M64.483 45.893a.088.088 0 00.098-.069.082.082 0 00-.014-.063.083.083 0 00-.055-.035 2.285 2.285 0 01-1.684-1.184.088.088 0 00-.112-.044.083.083 0 00-.044.112 2.445 2.445 0 001.811 1.283zM62.955 40.827a.17.17 0 00.147-.044 1.357 1.357 0 011.162-.372.17.17 0 00.205-.123.161.161 0 00-.122-.205 1.666 1.666 0 00-1.465.45.177.177 0 000 .245c.02.021.046.038.073.049zM68.599 41.698c.024.005.049.005.073 0a.172.172 0 00.102-.22 1.7 1.7 0 00-1.108-1.082.17.17 0 00-.205.127.177.177 0 00.127.206 1.333 1.333 0 01.87.866.157.157 0 00.14.103z" fill="#263238"/>
  <path d="M72.001 56.138l-4.29 2.897s6.19 11.038 5.667 12.805c-.708 2.408-1.694 7.675-3.037 10.343.176.577 1.07 1.894 1.567 2.124 3.418-2.609 6.874-10.769 6.742-13.054-.312-5.174-6.649-15.115-6.649-15.115z" fill="#EBCBC8"/>
  <path d="M70.981 53.72c3.383.49 7.26 12.237 7.26 12.237l-7.114 4.038s-3.129-5.59-4.676-9.746c-1.611-4.346.898-7.058 4.53-6.53z" fill="#407BFF"/>
  <path opacity=".6" d="M70.981 53.72c3.383.49 7.26 12.237 7.26 12.237l-7.114 4.038s-3.129-5.59-4.676-9.746c-1.611-4.346.898-7.058 4.53-6.53z" fill="#FAFAFA"/>
  <path d="M76.536 176.333a1.07 1.07 0 01-.688-.181.532.532 0 01-.176-.451.278.278 0 01.147-.24c.39-.2 1.547.49 1.68.593a.078.078 0 01.038.083.084.084 0 01-.021.044.079.079 0 01-.042.024 4.01 4.01 0 01-.938.128zm-.527-.739a.217.217 0 00-.107 0c-.025 0-.05.034-.054.102a.35.35 0 00.112.309c.4.18.854.203 1.27.063a3.383 3.383 0 00-1.22-.474z" fill="#407BFF"/>
  <path d="M77.474 176.21h-.044c-.371-.205-1.084-.978-1.01-1.39a.28.28 0 01.272-.22.458.458 0 01.361.108c.416.342.489 1.375.489 1.419 0 .015-.004.03-.01.044a.116.116 0 01-.03.035l-.028.004zm-.723-1.468h-.039c-.112 0-.122.064-.122.088-.049.235.41.827.776 1.111a2.042 2.042 0 00-.42-1.126.316.316 0 00-.214-.073h.02zM55.018 176.338a1.377 1.377 0 01-.87-.221.483.483 0 01-.156-.416.263.263 0 01.142-.225c.43-.245 1.87.49 2.03.573.018.007.032.019.04.035.008.017.01.035.005.053a.08.08 0 01-.02.045.088.088 0 01-.044.024 5.86 5.86 0 01-1.127.132zm-.645-.744a.357.357 0 00-.16.029.106.106 0 00-.055.093.34.34 0 00.103.274c.224.196.81.225 1.601.098a4.611 4.611 0 00-1.474-.494h-.015z" fill="#407BFF"/>
  <path d="M56.14 176.21h-.034c-.43-.19-1.284-.978-1.22-1.375 0-.093.083-.21.317-.235a.59.59 0 01.488.147c.454.372.552 1.336.557 1.38a.088.088 0 01-.04.074.066.066 0 01-.032.015.063.063 0 01-.036-.006zm-.869-1.468h-.053c-.152 0-.161.078-.166.098-.04.245.542.852.976 1.116a2.031 2.031 0 00-.488-1.106.452.452 0 00-.269-.108z" fill="#407BFF"/>
  <path d="M70.327 82.183l-3.418-.265 1.792 3.779s2.983.132 3.48-2.154l-1.854-1.36z" fill="#EBCBC8"/>
  <path d="M64.161 83.641l1.787 3.338 2.768-1.287-1.792-3.774-2.763 1.723z" fill="#EBCBC8"/>
  <path d="M42.647 180.146h-4.774L27.04 62.799l4.726-.44 10.881 117.787z" fill="#407BFF"/>
  <path opacity=".3" d="M42.647 180.146h-4.774L27.04 62.799l4.726-.44 10.881 117.787z" fill="#FAFAFA"/>
  <path d="M52.176 180.146h-4.764L36.492 61.923l4.725-.44 10.96 118.663z" fill="#407BFF"/>
  <path opacity=".3" d="M52.176 180.146h-4.764L36.492 61.923l4.725-.44 10.96 118.663z" fill="#FAFAFA"/>
  <path d="M47.412 180.146h-4.765L31.766 62.359l4.725-.436 10.92 118.223z" fill="#407BFF"/>
  <path opacity=".4" d="M47.412 180.146h-4.765L31.766 62.359l4.725-.436 10.92 118.223z" fill="#FAFAFA"/>
  <path d="M35.495 53.72l-4.251.396L27.04 62.8l14.177-1.317-5.721-7.763z" fill="#407BFF"/>
  <path opacity=".8" d="M35.495 53.72l-4.251.396L27.04 62.8l14.177-1.317-5.721-7.763z" fill="#FAFAFA"/>
  <path d="M33.04 50.391l-1.797 3.725 4.252-.397-2.455-3.328z" fill="#407BFF"/>
  <path opacity=".4" d="M33.04 50.391l-1.797 3.725 4.252-.397-2.455-3.328z" fill="#FAFAFA"/>
  <path d="M161.128 45.692l-5.546-.616a56.98 56.98 0 01-1.084 11.365l-1.913 9.609 5.54.616 1.914-9.608a56.98 56.98 0 001.084-11.366h.005z" fill="#407BFF"/>
  <path opacity=".4" d="M161.128 45.692l-5.546-.616a56.98 56.98 0 01-1.084 11.365l-1.913 9.609 5.54.616 1.914-9.608a56.98 56.98 0 001.084-11.366h.005z" fill="#FAFAFA"/>
  <path d="M169.993 57.146H84.44L73.837 180.151h85.553l10.603-123.005z" fill="#407BFF"/>
  <path opacity=".8" d="M169.993 57.146H84.44L73.837 180.151h85.553l10.603-123.005z" fill="#FAFAFA"/>
  <path d="M159.912 174.057H74.364l-.527 6.094h85.553l.522-6.094z" fill="#407BFF"/>
  <path opacity=".4" d="M159.912 174.057H74.364l-.527 6.094h85.553l.522-6.094z" fill="#FAFAFA"/>
  <path d="M164.418 57.146H78.865L68.262 180.151h85.553l10.603-123.005z" fill="#FAFAFA"/>
  <path d="M154.337 174.057H68.789l-.527 6.094h85.553l.522-6.094z" fill="#407BFF"/>
  <path opacity=".6" d="M154.337 174.057H68.789l-.527 6.094h85.553l.522-6.094z" fill="#FAFAFA"/>
  <path d="M158.56 63.318H83.669a.102.102 0 01-.073-.03.104.104 0 01-.03-.072.108.108 0 01.103-.103h74.891c.028 0 .054.01.074.03.02.019.032.045.033.073a.094.094 0 01-.008.04.102.102 0 01-.099.062zM158.135 68.257H83.244a.102.102 0 01-.103-.103.108.108 0 01.103-.102h74.891c.027 0 .053.01.072.03a.1.1 0 010 .145.101.101 0 01-.072.03zM157.71 73.196H82.843a.102.102 0 01-.102-.103.103.103 0 01.103-.103h74.866c.028 0 .054.011.073.03a.104.104 0 01-.073.175zM157.286 78.135H82.394a.103.103 0 010-.206h74.892a.102.102 0 01.094.063.107.107 0 01.008.04.106.106 0 01-.03.073.1.1 0 01-.072.03zM156.861 83.073H81.97a.102.102 0 01-.103-.102.103.103 0 01.103-.103h74.891c.027 0 .053.01.072.03a.1.1 0 01.03.073.1.1 0 01-.03.072.101.101 0 01-.072.03zM156.431 88.013H81.545a.103.103 0 010-.206h74.886c.028 0 .054.01.073.03a.104.104 0 010 .145.102.102 0 01-.073.03zM156.007 92.951H81.115a.102.102 0 01-.102-.103.103.103 0 01.102-.102h74.892c.027 0 .053.01.072.03a.104.104 0 010 .145.101.101 0 01-.072.03zM155.582 97.895H80.691a.102.102 0 01-.103-.103.103.103 0 01.103-.103h74.891c.027 0 .053.011.072.03a.1.1 0 01.03.073.1.1 0 01-.03.073.101.101 0 01-.072.03zM155.157 102.829h-74.89a.103.103 0 01-.073-.03.104.104 0 010-.146.103.103 0 01.072-.03h74.891c.027 0 .054.011.073.03.019.019.03.046.03.073a.106.106 0 01-.03.073.105.105 0 01-.073.03zM154.733 107.768H79.841a.1.1 0 01-.072-.031.101.101 0 01-.03-.072c0-.027.01-.054.03-.073a.103.103 0 01.072-.03h74.892a.102.102 0 01.102.103.105.105 0 01-.031.071.113.113 0 01-.071.032zM154.303 112.706H79.426a.096.096 0 01-.047 0 .11.11 0 01-.072-.058.112.112 0 01-.01-.047c0-.016.003-.032.01-.046a.104.104 0 01.072-.059.109.109 0 01.047 0h74.887a.107.107 0 01.09.021.11.11 0 01.029.038.104.104 0 010 .093.116.116 0 01-.029.037.115.115 0 01-.043.021.094.094 0 01-.047 0h-.01zM153.878 117.645H78.987a.103.103 0 01-.061-.038.107.107 0 01.06-.172h74.892a.09.09 0 01.04.008.099.099 0 01.056.058.114.114 0 01.007.041.103.103 0 01-.103.103zM153.454 122.584H78.562a.095.095 0 01-.04-.009.095.095 0 01-.034-.023.103.103 0 01-.028-.076c0-.027.01-.053.03-.073a.103.103 0 01.072-.03h74.892a.102.102 0 01.102.103.095.095 0 01-.006.041.098.098 0 01-.056.058.097.097 0 01-.04.009zM153.029 127.523H78.138a.095.095 0 01-.04-.009.096.096 0 01-.035-.023.103.103 0 01-.028-.076c0-.027.01-.053.03-.073a.104.104 0 01.073-.03h74.891a.11.11 0 01.061.038.11.11 0 010 .135.11.11 0 01-.061.038zM152.604 132.461H77.713a.094.094 0 01-.04-.008.095.095 0 01-.034-.023.103.103 0 01-.029-.076c0-.027.011-.054.03-.073a.103.103 0 01.073-.03h74.891a.11.11 0 01.085.105.11.11 0 01-.024.068.105.105 0 01-.061.037zM152.165 137.4H77.288a.109.109 0 01-.048 0 .104.104 0 01-.072-.059.105.105 0 01-.01-.046c0-.016.003-.032.01-.047a.11.11 0 01.072-.058.096.096 0 01.048 0h74.877a.094.094 0 01.047 0c.016.004.03.011.043.021a.112.112 0 01.04.084.104.104 0 01-.011.046.11.11 0 01-.029.038.106.106 0 01-.09.021zM151.75 142.334H76.858a.102.102 0 01-.073-.175.1.1 0 01.073-.03h74.892a.102.102 0 010 .205zM151.325 147.273H76.434a.103.103 0 01-.073-.03.104.104 0 010-.146.103.103 0 01.073-.03h74.891a.102.102 0 01.102.103.102.102 0 01-.102.103zM150.9 152.226H76.009a.1.1 0 01-.073-.03.102.102 0 01.073-.175H150.9a.103.103 0 110 .205zM150.476 157.151H75.584a.103.103 0 01-.072-.03.104.104 0 010-.146.103.103 0 01.072-.03h74.892a.102.102 0 01.102.103.102.102 0 01-.102.103zM150.046 162.089H75.16a.1.1 0 01-.073-.03.102.102 0 01.072-.175h74.887a.102.102 0 01.102.103c0 .027-.01.053-.03.072a.098.098 0 01-.072.03zM149.621 167.028h-74.89a.102.102 0 01-.072-.175.1.1 0 01.071-.03h74.891a.102.102 0 110 .205z" fill="#407BFF"/>
  <g opacity=".5" fill="#FAFAFA">
    <path opacity=".5" d="M158.56 63.318H83.669a.101.101 0 01-.073-.03.103.103 0 01-.03-.072.108.108 0 01.103-.103h74.891c.028 0 .054.01.074.03.02.019.032.045.033.073a.094.094 0 01-.008.04.102.102 0 01-.099.062zM158.135 68.257H83.244a.102.102 0 01-.103-.103.107.107 0 01.103-.102h74.891c.027 0 .053.01.072.03a.1.1 0 01.03.072.1.1 0 01-.03.073.101.101 0 01-.072.03zM157.71 73.196H82.843a.102.102 0 01-.102-.103.103.103 0 01.103-.103h74.866c.028 0 .054.011.073.03a.104.104 0 01-.073.175zM157.286 78.135H82.394a.103.103 0 010-.206h74.892a.102.102 0 01.094.063.107.107 0 01.008.04.106.106 0 01-.03.073.1.1 0 01-.072.03zM156.861 83.073H81.97a.102.102 0 01-.103-.102.103.103 0 01.103-.103h74.891c.027 0 .053.01.072.03a.1.1 0 01.03.073.1.1 0 01-.03.072.101.101 0 01-.072.03zM156.431 88.012H81.545a.102.102 0 01-.102-.103.103.103 0 01.102-.102h74.886a.102.102 0 01.103.102.104.104 0 01-.03.073.102.102 0 01-.073.03zM156.007 92.951H81.115a.102.102 0 01-.102-.103.103.103 0 01.102-.102h74.892c.027 0 .053.01.072.03a.104.104 0 010 .145.101.101 0 01-.072.03zM155.582 97.895H80.691a.103.103 0 010-.206h74.891c.027 0 .053.011.072.03a.1.1 0 01.03.073.1.1 0 01-.03.073.101.101 0 01-.072.03zM155.157 102.829h-74.89a.103.103 0 01-.103-.103.103.103 0 01.102-.103h74.891c.027 0 .054.011.073.03.019.019.03.046.03.073a.106.106 0 01-.03.073.105.105 0 01-.073.03zM154.733 107.767H79.841a.1.1 0 01-.072-.03.102.102 0 01.072-.175h74.892a.102.102 0 01.102.103.107.107 0 01-.031.071.107.107 0 01-.071.031zM154.303 112.706H79.426a.096.096 0 01-.047 0 .11.11 0 01-.072-.058.111.111 0 010-.093.105.105 0 01.12-.059h74.886a.107.107 0 01.09.021.11.11 0 01.029.038.104.104 0 010 .093.116.116 0 01-.029.037.115.115 0 01-.043.021.094.094 0 01-.047 0h-.01zM153.878 117.645H78.987a.103.103 0 01-.06-.038.107.107 0 01.06-.172h74.891a.097.097 0 01.074.031c.01.01.017.022.022.035a.114.114 0 01.007.041.103.103 0 01-.103.103zM153.454 122.584H78.562a.095.095 0 01-.04-.009.095.095 0 01-.034-.023.103.103 0 01-.028-.076c0-.027.01-.053.03-.073a.103.103 0 01.072-.03h74.892a.102.102 0 01.102.103.095.095 0 01-.006.041.098.098 0 01-.056.058.097.097 0 01-.04.009zM153.029 127.523H78.138a.095.095 0 01-.04-.009.101.101 0 01-.062-.099c0-.027.01-.053.03-.073a.104.104 0 01.072-.03h74.891a.11.11 0 01.085.105.11.11 0 01-.085.106zM152.604 132.461H77.713a.094.094 0 01-.04-.008.095.095 0 01-.034-.023.103.103 0 01-.029-.076.102.102 0 01.103-.103h74.891a.11.11 0 01.085.105.11.11 0 01-.024.068.105.105 0 01-.061.037zM152.165 137.4H77.288a.109.109 0 01-.047 0 .105.105 0 01-.072-.059.105.105 0 01-.011-.046c0-.016.004-.032.01-.047a.111.111 0 01.073-.058.096.096 0 01.047 0h74.877a.094.094 0 01.047 0c.016.004.03.011.043.021a.112.112 0 01.04.084.104.104 0 01-.011.046.11.11 0 01-.029.038.107.107 0 01-.09.021zM151.75 142.334H76.858a.102.102 0 01-.073-.175.1.1 0 01.073-.03h74.892a.102.102 0 010 .205zM151.325 147.273H76.434a.103.103 0 01-.103-.103c0-.027.011-.053.03-.073a.103.103 0 01.073-.03h74.891a.102.102 0 01.102.103.102.102 0 01-.102.103zM150.9 152.226H76.01a.1.1 0 01-.073-.03.102.102 0 01.073-.175h74.89a.103.103 0 01.073.175.099.099 0 01-.073.03zM150.476 157.15H75.584a.1.1 0 01-.072-.03.102.102 0 010-.145.103.103 0 01.072-.03h74.892a.102.102 0 01.072.175.098.098 0 01-.072.03zM150.046 162.089H75.16a.1.1 0 01-.073-.03.102.102 0 01.073-.175h74.886a.103.103 0 110 .205zM149.621 167.028h-74.89a.102.102 0 01-.072-.175.1.1 0 01.071-.03h74.891a.102.102 0 110 .205z"/>
  </g>
  <path d="M141.62 171.487a.055.055 0 01-.035-.02.062.062 0 01-.014-.039l9.593-111.252c0-.03.024-.044.054-.049a.06.06 0 01.049.059l-9.598 111.252a.05.05 0 01-.014.035.05.05 0 01-.035.014z" fill="#407BFF"/>
  <path opacity=".3" d="M141.62 171.487a.055.055 0 01-.035-.02.062.062 0 01-.014-.039l9.593-111.252c0-.03.024-.044.054-.049a.06.06 0 01.049.059l-9.598 111.252a.05.05 0 01-.014.035.05.05 0 01-.035.014z" fill="#000"/>
  <path d="M149.343 44.258h-5.575a56.48 56.48 0 01.176 11.415l-.84 9.765h5.575l.84-9.765a56.48 56.48 0 00-.176-11.415z" fill="#407BFF"/>
  <path opacity=".3" d="M149.343 44.258h-5.575a56.48 56.48 0 01.176 11.415l-.84 9.765h5.575l.84-9.765a56.48 56.48 0 00-.176-11.415z" fill="#000"/>
  <path d="M100.598 67.386h-.039a.114.114 0 01-.083-.108.98.98 0 00-.361-.68 1.897 1.897 0 00-1.41-.372 6.378 6.378 0 00-1.153.313c-.413.159-.842.27-1.279.333a3.085 3.085 0 01-2.211-.65 2.135 2.135 0 01-2.143.939 2.107 2.107 0 01-1.382-.98.747.747 0 00-.976-.254c-.636.322-1.288.611-1.953.867a.126.126 0 01-.103 0 .12.12 0 01-.058-.088 1.964 1.964 0 010-.49.382.382 0 00-.137-.347.323.323 0 00-.317-.054 2.516 2.516 0 00-.742.386l-.108.084c-.488.382-.908.665-1.19.626a.317.317 0 01-.206-.122.785.785 0 01-.112-.543 2.004 2.004 0 011.552-1.709.121.121 0 01.124.188.121.121 0 01-.08.052 1.737 1.737 0 00-1.352 1.493.56.56 0 00.063.372.054.054 0 00.045.025c.205.029.707-.348 1.01-.578l.107-.083c.246-.184.52-.328.81-.426a.564.564 0 01.547.098.617.617 0 01.23.563 1.598 1.598 0 000 .264 19.01 19.01 0 001.762-.798.974.974 0 011.304.353 1.808 1.808 0 001.608.918 1.804 1.804 0 001.57-.982.112.112 0 01.083-.064.127.127 0 01.102.03 2.817 2.817 0 002.138.685c.419-.062.83-.169 1.226-.318A6.654 6.654 0 0198.68 66a2.178 2.178 0 011.601.426c.19.15.329.355.4.587.777-.881 1.704-1.757 2.866-1.708a.53.53 0 01.405.156.557.557 0 01.078.45l-.136 1.033a5.197 5.197 0 001.547-1.33c.192-.261.425-.49.688-.676a.714.714 0 01.879-.03c.167.155.282.359.327.583 0 .063.039.127.064.186a.59.59 0 00.288.323.174.174 0 00.156 0 .121.121 0 01.165.154.126.126 0 01-.063.071.436.436 0 01-.351 0 .832.832 0 01-.42-.46c-.029-.064-.049-.132-.073-.2a.904.904 0 00-.244-.49.489.489 0 00-.581.024 2.747 2.747 0 00-.63.622 5.373 5.373 0 01-1.835 1.507.125.125 0 01-.061.017.12.12 0 01-.061-.017.12.12 0 01-.054-.117l.166-1.268c0-.098.024-.205-.025-.26-.048-.053-.107-.063-.219-.068h-.074c-1.113 0-2.011.94-2.767 1.826a.135.135 0 01-.118.044zM128.42 67.371a1.464 1.464 0 01-1.123-.773 5.317 5.317 0 01-.274-.548 4.35 4.35 0 00-.332-.637 5.239 5.239 0 01-1.869 1.053.11.11 0 01-.117 0 .118.118 0 01-.037-.053.117.117 0 01-.002-.065 3.74 3.74 0 00.073-.568.955.955 0 00-.091-.458.955.955 0 00-.722-.53.902.902 0 00-.452.058l-1.406.544c-.224.083-.903.347-1.269-.069a1.422 1.422 0 01-.117-.171.493.493 0 00-.161-.181c-.112-.054-.264.024-.4.112a64.662 64.662 0 01-2.724 1.591 2.292 2.292 0 01-1.065.372 1.201 1.201 0 01-.932-.455 1.235 1.235 0 01-.308-.71 3.193 3.193 0 01-1.928.876.919.919 0 01-.542-.19.88.88 0 01-.239-1.014c.139-.307.344-.58.6-.798a.123.123 0 01.184-.013.113.113 0 01.028.044.113.113 0 01.008.051.111.111 0 01-.015.05.119.119 0 01-.034.04c-.228.197-.413.44-.542.714a.648.648 0 00.152.725c.123.08.268.117.415.107.712 0 1.342-.49 1.982-.978a.125.125 0 01.136 0 .116.116 0 01.059.127.98.98 0 00.244.793.979.979 0 00.732.367c.348-.031.684-.147.977-.338a50.512 50.512 0 002.709-1.59.682.682 0 01.64-.123.628.628 0 01.258.274c.027.047.058.09.093.132.176.2.488.2 1.001 0l1.406-.543a1.166 1.166 0 011.108.147 1.192 1.192 0 01.488 1.028 3.518 3.518 0 01-.044.396 5.051 5.051 0 001.689-1.023.138.138 0 01.093-.034.112.112 0 01.083.049c.18.242.328.507.439.788.083.18.166.362.264.528a1.1 1.1 0 001.064.632c.322-.074.532-.367.757-.685.192-.366.515-.646.903-.784a1.61 1.61 0 011.128.319c.127.068.254.142.381.2.742.328 1.552.132 2.406-.078a5.532 5.532 0 012.031-.235.119.119 0 01.106.088.114.114 0 01.001.049.117.117 0 01-.047.08.123.123 0 01-.089.023 5.429 5.429 0 00-1.953.235c-.859.21-1.743.426-2.563.058a3.888 3.888 0 01-.4-.21 1.425 1.425 0 00-.977-.289c-.327.074-.537.372-.761.686-.19.365-.511.644-.898.783a.975.975 0 01-.205.024zM87.652 72.212a.132.132 0 01-.068 0 .138.138 0 01-.054-.112c.025-.256.082-.508.171-.75a3.237 3.237 0 01-2.607.554 1 1 0 01-.488-.21.873.873 0 010-1.156c.264-.288.602-.498.976-.607a.123.123 0 01.088.23c-.33.097-.627.28-.864.529a.638.638 0 000 .822c.109.079.234.13.366.152a3.034 3.034 0 002.87-.93.122.122 0 01.167 0 .122.122 0 01.029.166 2.607 2.607 0 00-.405 1.004l3.183-1.684a.122.122 0 01.156.034.128.128 0 010 .157.172.172 0 00-.03.176.353.353 0 00.245.225.975.975 0 00.659-.244l.034-.03c.213-.187.476-.307.757-.347.177 0 .353.037.517.107 1.6.542 3.295.734 4.975.563.258-.03.522-.063.78-.103 1-.219 2.038-.197 3.027.064.016.005.03.013.042.024a.11.11 0 01.029.038.11.11 0 01.011.047.11.11 0 01-.008.048.127.127 0 01-.022.041.118.118 0 01-.083.04.115.115 0 01-.047-.008 6.358 6.358 0 00-2.929-.049c-.263.034-.527.074-.79.098a11.986 11.986 0 01-5.078-.617.876.876 0 00-1.069.206l-.039.024a1.142 1.142 0 01-.844.29.585.585 0 01-.43-.392.328.328 0 01-.024-.093l-3.13 1.678a.131.131 0 01-.073.015zM107.365 71.909a.121.121 0 01-.073 0 .133.133 0 01-.036-.044.128.128 0 01-.013-.054v-.73a.122.122 0 01.244-.005v.568a6.041 6.041 0 002.616-1.62.107.107 0 01.037-.03.106.106 0 01.046-.009.173.173 0 01.088.034.92.92 0 01.215.52c.034.175.064.327.176.39a.488.488 0 00.298 0 6.967 6.967 0 002.011-.572c.571-.26 1.347-.612 1.889-.162l.098.094a.557.557 0 00.166.127c.075.027.154.04.234.039a.794.794 0 01.151 0c.172.032.337.094.489.181.08.043.163.08.249.113.2.078.459.053.537-.103a.119.119 0 01.067-.064.12.12 0 01.094.006.118.118 0 01.039.028c.011.012.02.026.025.042a.114.114 0 01.007.048.112.112 0 01-.013.047.66.66 0 01-.839.226 2.876 2.876 0 01-.279-.123 1.319 1.319 0 00-.415-.161h-.131a.889.889 0 01-.327-.059.815.815 0 01-.235-.181l-.083-.078c-.424-.348-1.093-.044-1.63.2-.66.3-1.361.5-2.08.593a.754.754 0 01-.449-.05.716.716 0 01-.298-.562 1.465 1.465 0 00-.073-.284 6.343 6.343 0 01-2.773 1.63l-.029.005zM123.299 71.556a.574.574 0 01-.127 0 .53.53 0 01-.356-.284.366.366 0 010-.342.115.115 0 01.071-.064.113.113 0 01.094.01.119.119 0 01.059.07c.005.015.006.031.004.047a.102.102 0 01-.014.044.151.151 0 000 .132.293.293 0 00.186.147.828.828 0 00.488-.137 5.747 5.747 0 001.601-1.272.128.128 0 01.142-.03.678.678 0 01.302.573c.013.113.041.223.083.328.05.092.135.16.235.19.34.042.684-.034.976-.215l1.758-.954a.802.802 0 01.522-.132.79.79 0 01.371.26l.078.078c.571.548 1.509.235 2.334-.04l.156-.049a7.712 7.712 0 014.725 0 .118.118 0 01.075.058c.008.014.013.03.014.046a.13.13 0 01-.006.048.126.126 0 01-.156.079 7.484 7.484 0 00-4.574 0l-.156.053c-.85.28-1.899.632-2.583 0l-.083-.088a.6.6 0 00-.249-.186.594.594 0 00-.351.108l-1.758.954c-.354.211-.769.294-1.176.235a.626.626 0 01-.381-.313 1.272 1.272 0 01-.107-.401.862.862 0 00-.098-.333c-.458.5-.998.92-1.596 1.238a1.127 1.127 0 01-.503.142zM97.328 77.655a.108.108 0 01-.054 0 .132.132 0 01-.068-.132 7.235 7.235 0 000-2.13 3.183 3.183 0 01-1.099.77 1.334 1.334 0 01-1.532-.368 1.143 1.143 0 01-.083-.127c-.137-.206-.24-.353-.362-.313a.367.367 0 00-.141.122l-1.43 1.65a.117.117 0 01-.152 0 .127.127 0 01-.058-.142l.273-.916a18.519 18.519 0 01-2.988-.171.123.123 0 01-.097-.083l-.147-.421a4.391 4.391 0 01-1.674 1.003 1.782 1.782 0 01-1.885-.558 1.54 1.54 0 01-1.464.309.127.127 0 01-.083-.133.98.98 0 01.937-.832.112.112 0 01.122.123.122.122 0 01-.122.122.76.76 0 00-.674.519 1.285 1.285 0 001.226-.382.117.117 0 01.156-.018c.016.01.03.026.039.043a1.519 1.519 0 001.694.572 4.695 4.695 0 001.718-1.067.117.117 0 01.113 0 .121.121 0 01.083.079l.175.518c1.008.133 2.025.186 3.042.157a.116.116 0 01.097.044.117.117 0 010 .113l-.156.533 1.06-1.224a.63.63 0 01.253-.195c.303-.098.489.2.64.416.023.04.05.08.078.117a1.093 1.093 0 001.25.28 3.48 3.48 0 001.176-.882.136.136 0 01.122-.03.123.123 0 01.083.099 7.44 7.44 0 01.078 2.055l1.065-1.174c.236-.308.552-.544.912-.686.453-.082.92-.017 1.333.186.373.192.801.25 1.211.162a.121.121 0 01.15.166.127.127 0 01-.067.064c-.464.11-.951.053-1.377-.162a1.398 1.398 0 00-1.598.023c-.154.11-.285.251-.384.413l-1.323 1.469a.132.132 0 01-.068.02zM111.216 76.49h-.131c-.337-.083-.445-.416-.537-.71a1.3 1.3 0 00-.235-.49 4.515 4.515 0 01-2.797.98.128.128 0 01-.122-.123.122.122 0 01.122-.122 4.246 4.246 0 002.705-.979.12.12 0 01.146 0c.207.18.348.425.4.695.098.309.171.49.362.544.114.017.231 0 .336-.05a4.463 4.463 0 001.265-.665c.107-.093.231-.162.366-.206a.975.975 0 01.674.137l.117.054c.698.309 1.464.142 2.27-.03a4.572 4.572 0 012.192-.117.13.13 0 01.074.059.132.132 0 01.014.093.132.132 0 01-.022.043.126.126 0 01-.082.044.124.124 0 01-.048-.004 4.443 4.443 0 00-2.079.123c-.811.171-1.65.352-2.417 0l-.122-.054a.794.794 0 00-.488-.127.768.768 0 00-.264.151c-.409.308-.864.55-1.347.72-.115.028-.233.04-.352.034zM83.551 86.916c-.189 0-.376-.037-.551-.108a.806.806 0 01-.406-.333c-.268-.49.22-.979.718-1.282a.122.122 0 01.166.049.123.123 0 01-.044.166c-.327.186-.82.593-.625.95a.577.577 0 00.283.22c.518.22 1.182.04 1.953-.529a10.964 10.964 0 001.523-1.33.132.132 0 01.093-.04.116.116 0 01.088.044c.13.201.177.445.132.68a.682.682 0 00.088.49.56.56 0 00.527.073 6.786 6.786 0 002.065-.92c.273-.166.556-.333.844-.49a.586.586 0 01.279-.087c.312 0 .405.303.488.543.03.154.1.298.205.416.136.112.317.049.595-.059.163-.078.338-.127.518-.147.273.008.538.097.761.255l.157.088c.229.117.556.196.727 0a.122.122 0 01.17 0 .127.127 0 010 .176.867.867 0 01-1.015.025l-.166-.093c-.182-.133-.4-.21-.624-.22-.152.02-.3.063-.44.127-.273.107-.58.235-.844 0a1.069 1.069 0 01-.283-.539c-.074-.254-.123-.362-.24-.367a.409.409 0 00-.17.064 8.55 8.55 0 00-.83.49c-.656.436-1.38.759-2.144.954a.786.786 0 01-.751-.152.87.87 0 01-.152-.69c.02-.125.02-.252 0-.377a11.59 11.59 0 01-1.464 1.238 2.925 2.925 0 01-1.63.715zM99.715 86.94a1.146 1.146 0 01-.537-.117.89.89 0 01-.459-.876.58.58 0 01.415-.529.117.117 0 01.147.083.123.123 0 01-.041.13.123.123 0 01-.042.022.337.337 0 00-.235.318.662.662 0 00.322.632 1.785 1.785 0 001.382-.137l2.573-.98a.562.562 0 01.346-.038.49.49 0 01.293.318.625.625 0 00.122.186c.098.078.269.044.513-.098l2.075-1.243a.666.666 0 01.434-.133c.322.05.395.382.454.651.014.078.034.155.059.23a1.01 1.01 0 001.181.544 3.413 3.413 0 001.22-.666l.113-.083c.225-.194.505-.312.8-.338.208.02.41.083.591.186h.039c.917.44 1.914.684 2.929.72a.926.926 0 01-.078-.49 1.202 1.202 0 01.464-.837 2.026 2.026 0 011.572-.24c.54.105 1.056.312 1.518.612l.156.108c.151.115.315.212.488.289.557.118 1.137.039 1.641-.225l.424-.157c1.392-.455 2.9-.25 4.228-.073l5.228.704a.112.112 0 01.047.014.11.11 0 01.037.03.114.114 0 01.024.093.122.122 0 01-.137.103l-5.228-.7c-1.309-.176-2.788-.377-4.121.064l-.419.147a1.952 1.952 0 01-2.363-.088l-.156-.103a3.972 3.972 0 00-1.431-.578 1.795 1.795 0 00-1.381.2.912.912 0 00-.25.29.912.912 0 00-.112.367.627.627 0 00.157.49c.015.017.025.04.029.063a.126.126 0 01-.117.147 7.688 7.688 0 01-3.266-.75h-.039a1.2 1.2 0 00-.488-.16c-.24.03-.464.133-.645.293l-.112.078a3.51 3.51 0 01-1.313.71 1.257 1.257 0 01-1.465-.695c-.024-.078-.044-.166-.063-.25-.059-.274-.108-.44-.249-.46a.492.492 0 00-.274.098l-2.079 1.243c-.127.074-.513.304-.791.079a.804.804 0 01-.186-.27c-.048-.107-.087-.176-.141-.19a.319.319 0 00-.19.034l-2.573.979c-.33.142-.682.227-1.04.25zM135.835 86.035a.603.603 0 01-.327-.083.456.456 0 01-.21-.397.322.322 0 01.171-.284.127.127 0 01.166.054.127.127 0 01-.054.166.072.072 0 00-.032.03.072.072 0 00-.007.044.217.217 0 00.088.176.69.69 0 00.488 0 26.018 26.018 0 002.739-.685c.449-.137.976-.142 1.118.27.014.049.024.1.029.15a.363.363 0 00.044.148c.044.058.166.063.269.063a13.343 13.343 0 003.866-.68.122.122 0 01.094.007.12.12 0 01.062.071.12.12 0 01-.007.095.121.121 0 01-.071.062c-1.272.422-2.6.655-3.94.69a.542.542 0 01-.488-.166.495.495 0 01-.088-.255.4.4 0 00-.024-.108c-.107-.323-.742-.137-.81-.112-.909.279-1.831.51-2.763.69a1.717 1.717 0 01-.313.054zM79.255 151.248a1.15 1.15 0 01-.536-.123.887.887 0 01-.46-.876.571.571 0 01.415-.529.122.122 0 11.064.235.34.34 0 00-.234.319.67.67 0 00.322.636c.46.138.958.087 1.381-.142l2.573-.979a.566.566 0 01.347-.039.48.48 0 01.293.318c.027.07.069.133.122.186.097.078.268.044.488-.098l2.075-1.243a.689.689 0 01.434-.127c.322.044.395.376.454.646.014.078.034.154.059.23a1.011 1.011 0 001.177.528 3.38 3.38 0 001.215-.665l.117-.084a1.084 1.084 0 011.391-.151h.034a7.423 7.423 0 002.93.719.98.98 0 01-.079-.489 1.2 1.2 0 01.489-.837 2.043 2.043 0 011.571-.24 4.27 4.27 0 011.519.612l.151.107a1.77 1.77 0 002.148.064l.425-.157c1.386-.45 2.899-.249 4.227-.073l5.229.705a.122.122 0 01.084.044.12.12 0 01.023.093.129.129 0 01-.048.078.13.13 0 01-.089.025l-5.243-.651c-1.308-.177-2.787-.372-4.12.063l-.42.147a2.553 2.553 0 01-1.806.23 2.589 2.589 0 01-.561-.318l-.152-.103a4.058 4.058 0 00-1.43-.577 1.811 1.811 0 00-1.382.2.937.937 0 00-.36.656.626.626 0 00.155.49.127.127 0 01-.022.187.12.12 0 01-.066.023 7.694 7.694 0 01-3.265-.749h-.04a1.28 1.28 0 00-.488-.161c-.239.031-.463.133-.644.293l-.112.084a3.57 3.57 0 01-1.314.705 1.258 1.258 0 01-1.465-.696 3.05 3.05 0 01-.063-.249c-.058-.274-.107-.441-.249-.46a.485.485 0 00-.273.098l-2.08 1.243c-.126.073-.488.308-.79.078a.76.76 0 01-.186-.269c-.049-.108-.083-.176-.141-.191a.367.367 0 00-.19.034l-2.578.979a3.086 3.086 0 01-1.026.221zM115.376 150.318a.605.605 0 01-.327-.084.445.445 0 01-.21-.396.322.322 0 01.171-.284.128.128 0 01.166.054.127.127 0 01-.054.166.067.067 0 00-.032.03c-.007.014-.01.029-.007.044a.212.212 0 00.088.176.695.695 0 00.488 0 25.321 25.321 0 002.739-.685c.449-.137.976-.142 1.117.269.015.049.025.1.03.152a.359.359 0 00.044.146c.044.059.166.064.268.064a13.358 13.358 0 003.847-.68.123.123 0 01.156.078.125.125 0 01-.006.095.13.13 0 01-.072.062c-1.272.422-2.6.655-3.939.69a.538.538 0 01-.489-.162.5.5 0 01-.088-.259.39.39 0 000-.108c-.107-.323-.742-.137-.815-.112-.906.278-1.827.509-2.758.69-.104.028-.21.046-.317.054zM106.017 91.713a2.261 2.261 0 01-1.406-.436 1.51 1.51 0 01-.42-.519c-.13.101-.277.177-.434.226a2.686 2.686 0 01-2.172-.465.523.523 0 00-.264-.113.512.512 0 00-.288.176l-.342.323a1.098 1.098 0 01-1.782-.401l-.156-.397a9.032 9.032 0 01-4.725.397 5.157 5.157 0 01-1.865.621.133.133 0 01-.103-.034.137.137 0 01-.039-.098 1.78 1.78 0 00-.18-.95 3.272 3.272 0 01-2.026.216l-.137-.03a1.643 1.643 0 00-.45-.068 1.58 1.58 0 00-.653.235l-.235.132a4.387 4.387 0 01-1.464.602 1.563 1.563 0 01-1.592-.626c-.3.248-.686.369-1.074.338a.761.761 0 01-.576-.558.491.491 0 01.161-.539.127.127 0 01.171 0 .132.132 0 01-.024.176.27.27 0 00-.073.284.525.525 0 00.38.377c.372.005.733-.13 1.01-.377a.127.127 0 01.103 0c.035.014.063.04.079.074a1.294 1.294 0 001.396.612 4.288 4.288 0 001.367-.578l.234-.132c.23-.147.49-.238.761-.265.175.002.35.026.518.074l.127.03a3.03 3.03 0 001.977-.25.131.131 0 01.161.049c.18.318.274.677.273 1.042a4.874 4.874 0 001.67-.592.122.122 0 01.083 0 8.732 8.732 0 004.75-.421.127.127 0 01.161.073l.2.49a.857.857 0 001.021.516.855.855 0 00.361-.203l.346-.328a.708.708 0 01.449-.24c.144.01.281.061.396.147a2.5 2.5 0 001.953.446c.149-.05.289-.129.41-.23a1.598 1.598 0 01-.083-.49 1.175 1.175 0 01.429-.979.138.138 0 01.098-.024.114.114 0 01.078.054 1.094 1.094 0 01.088.979c-.074.192-.185.369-.327.518.089.19.221.358.386.49a2.54 2.54 0 002.138.264 9.634 9.634 0 001.093-.372 7.978 7.978 0 012.929-.622 11.9 11.9 0 001.44-.166l.562-.127c.815-.196 1.655-.392 2.397 0a.135.135 0 01.038.03c.01.012.019.026.024.042.005.015.006.031.005.048a.11.11 0 01-.014.046.119.119 0 01-.12.064.132.132 0 01-.046-.015c-.659-.347-1.464-.161-2.226.025l-.571.127c-.485.083-.973.14-1.464.171-.585.03-1.166.108-1.738.235-.371.104-.736.228-1.094.372a10.34 10.34 0 01-1.123.382c-.305.084-.62.132-.937.142zm-1.533-2.36a.979.979 0 00-.229.666 1.21 1.21 0 00.034.294c.078-.101.14-.213.186-.333a.924.924 0 00.009-.626zM124.046 91.287c-.144 0-.287-.01-.43-.03a.133.133 0 01-.083-.049.106.106 0 01-.01-.046c0-.016.003-.032.01-.047.039-.22.025-.446-.039-.66a6.915 6.915 0 01-4.086.391.114.114 0 01-.088-.073.122.122 0 010-.113l.371-.543a.126.126 0 01.033-.034.118.118 0 01.133 0 .12.12 0 01.053.078.12.12 0 01-.019.093l-.268.392a6.666 6.666 0 003.876-.465.113.113 0 01.098 0c.03.01.054.034.068.063.099.25.135.52.107.788 1.084.103 2.119-.455 3.115-.979.288-.156.581-.318.874-.46a.74.74 0 01.522-.098c.183.076.33.22.41.402.022.042.046.083.073.122.386.583 1.275.568 1.953.455.213-.046.433-.056.649-.03.158.04.31.103.45.187l.146.073c.81.392 1.865.26 3.227-.401.649-.318 1.396-.622 1.977-.22.015.008.029.019.039.032a.127.127 0 01.025.097.12.12 0 01-.02.048.112.112 0 01-.037.036.118.118 0 01-.099.012.118.118 0 01-.045-.025c-.488-.328-1.147-.049-1.738.24-1.43.695-2.553.828-3.417.402l-.151-.079a1.686 1.686 0 00-.381-.161 1.46 1.46 0 00-.537.03c-1.098.18-1.855 0-2.221-.559l-.083-.132c-.078-.132-.152-.26-.264-.294a.524.524 0 00-.346.084c-.288.142-.581.298-.865.455-.971.49-1.938 1.018-2.982 1.018zM83.107 101.184h-.117a.735.735 0 01-.532-.705c.01-.283.08-.56.21-.812a.122.122 0 01.16-.064.127.127 0 01.064.162 1.704 1.704 0 00-.19.704.488.488 0 00.337.49.67.67 0 00.376-.073 3.57 3.57 0 001.323-.94.121.121 0 01.132-.04c.204.07.234.275.263.441.004.092.03.181.078.26.069.073.21.078.43 0a18.1 18.1 0 002.211-.872c.22-.116.475-.15.718-.093a.39.39 0 01.224.216.688.688 0 01.04.254.324.324 0 00.034.181c.044.049.146.054.317 0l1.953-.533a2.182 2.182 0 011.235-.098.976.976 0 01.586.524.69.69 0 01.043.44 2.165 2.165 0 001.953-.21.106.106 0 01.045-.019.13.13 0 01.092.018.125.125 0 01.05.127.128.128 0 01-.05.079 2.404 2.404 0 01-2.27.181.094.094 0 01-.04-.026.096.096 0 01-.024-.042.107.107 0 01-.01-.047.1.1 0 01.01-.046.428.428 0 000-.358.75.75 0 00-.434-.386 2.045 2.045 0 00-1.099.098l-1.952.538c-.098 0-.405.113-.571-.093a.49.49 0 01-.088-.328.491.491 0 000-.161.171.171 0 00-.088-.088.774.774 0 00-.527.093 18.87 18.87 0 01-2.241.881c-.117.034-.488.151-.683-.084a.704.704 0 01-.142-.381.782.782 0 00-.044-.196c-.374.402-.83.717-1.338.925-.14.058-.292.087-.444.083zM100.51 102.178a.534.534 0 01-.58-.368 1.427 1.427 0 01.239-1.091 3.121 3.121 0 01-1.138.215 1.241 1.241 0 01-1.132-.533.733.733 0 01.078-.778.49.49 0 01.537-.21.127.127 0 01.067.195.123.123 0 01-.13.044.268.268 0 00-.279.122.49.49 0 00-.063.49 1.094 1.094 0 00.927.411h.03a2.769 2.769 0 001.44-.411c.142-.147.307-.271.488-.367a.12.12 0 01.156.039.126.126 0 010 .161 3 3 0 01-.488.358 1.566 1.566 0 00-.488 1.262c.053.167.219.231.488.186a7.874 7.874 0 002.441-1.497l.537-.426a.129.129 0 01.146 0 .113.113 0 01.047.06.113.113 0 01-.003.077l-.259.798a6.208 6.208 0 003.281-1.248.12.12 0 01.09-.024.122.122 0 01.056.219 1.922 1.922 0 00-.673 1.038l3.065-.715a.555.555 0 01.454.045.537.537 0 01.171.342.646.646 0 000 .088c.147.544.977.563 1.343.544a4.455 4.455 0 001.821-.363c.4-.162.809-.301 1.225-.416a.309.309 0 01.283.098c.103.132.039.333-.029.543-.068.211-.112.358-.054.412.059.054.122.088.615-.074l2.632-1.551c.272-.197.596-.31.932-.323a1.642 1.642 0 011.074.704l.049.064c.196.301.474.538.8.685a.644.644 0 00.572-.122.35.35 0 00.136-.304.12.12 0 01.078-.132.128.128 0 01.082.003c.027.01.049.028.065.051.207.331.51.59.869.744.249-.044.366-.313.488-.626a1.254 1.254 0 01.644-.793c.232-.058.477-.04.698.049 3.174.837 6.625.489 9.666.132a.12.12 0 01.122.062.12.12 0 01.015.045.126.126 0 01-.027.09.125.125 0 01-.08.048c-3.066.332-6.542.709-9.764-.138a.97.97 0 00-.556-.048c-.249.083-.371.362-.489.66-.117.299-.322.734-.727.779a.086.086 0 01-.059 0 2.181 2.181 0 01-.849-.622.601.601 0 01-.166.205.861.861 0 01-.801.172 2.106 2.106 0 01-.917-.769l-.049-.058a1.394 1.394 0 00-.894-.617 1.458 1.458 0 00-.8.289l-2.651 1.566c-.488.157-.752.161-.893.024-.142-.137-.074-.425 0-.66.029-.098.088-.279.063-.323h-.054c-.398.112-.789.248-1.171.406a4.759 4.759 0 01-1.894.377c-.874.044-1.465-.22-1.592-.725a.889.889 0 01-.024-.102.36.36 0 00-.078-.196c-.054-.039-.157 0-.249 0l-3.256.754a.122.122 0 01-.06 0 .122.122 0 01-.053-.03.108.108 0 01-.034-.108c.04-.255.128-.501.259-.724a6.454 6.454 0 01-2.885.837.123.123 0 01-.103-.049.12.12 0 010-.112l.191-.583-.22.176a8.077 8.077 0 01-2.509 1.537 1.212 1.212 0 01-.24.03z" fill="#263238"/>
</svg>
