<svg width="183" height="141" fill="none" xmlns="http://www.w3.org/2000/svg">
  <path fill="#E5E5E5" d="M0 0h183v141H0z"/>
  <path d="M-105-160h400v900h-400v-900z" fill="url(#paint0_radial)"/>
  <path d="M130.323 140.581h-4.153v.12h4.153v-.12zM170.743 134.821h-9.173v.12h9.173v-.12z" fill="#EBEBEB"/>
  <path d="M182.784 11.307H.217v121.507h182.567V11.307z" fill="#B4BFCC"/>
  <path d="M91.5 132.267V8.427s23.264-7.58 85.466-7.58v131.42H91.5z" fill="#F0F0F0"/>
  <path d="M91.5 132.267V8.427S68.236.847 6.034.847v131.42H91.5zM98.154 21.229a1.197 1.197 0 01-.837-.31 1.207 1.207 0 01.655-2.09 521.867 521.867 0 0170.367-4.915c.317 0 .621.126.845.351a1.203 1.203 0 010 1.697 1.192 1.192 0 01-.845.352 517.983 517.983 0 00-70.004 4.9c-.06.01-.12.015-.181.015zM98.154 30.123a1.194 1.194 0 01-.867-.299 1.204 1.204 0 01.719-2.1c.353-.049 35.788-4.47 70.333-4.47.317 0 .621.127.845.352a1.203 1.203 0 01-.845 2.048c-34.392 0-69.683 4.402-70.037 4.45l-.148.02zM98.154 39.018a1.193 1.193 0 01-.863-.31 1.204 1.204 0 01.743-2.09c.387-.039 39.22-4.018 70.305-4.018a1.2 1.2 0 010 2.4c-30.961 0-69.674 3.965-70.061 4.008l-.124.01zM98.154 47.912c-.317.014-.626-.1-.86-.316a1.203 1.203 0 01.76-2.084c.425-.034 42.661-3.571 70.265-3.571.317 0 .621.126.845.351a1.203 1.203 0 010 1.697 1.192 1.192 0 01-.845.352c-27.523 0-69.659 3.528-70.084 3.562l-.081.01zM98.154 56.806a1.193 1.193 0 01-.857-.322 1.203 1.203 0 01.776-2.078c.478-.033 46.098-3.124 70.266-3.124a1.194 1.194 0 011.195 1.2 1.194 1.194 0 01-1.195 1.2c-24.087 0-69.645 3.086-70.104 3.12l-.081.004zM98.154 65.706a1.192 1.192 0 01-.854-.33 1.202 1.202 0 01.792-2.07c.478-.03 49.535-2.679 70.266-2.679.317 0 .621.127.845.352a1.203 1.203 0 01-.845 2.048c-20.65 0-69.626 2.65-70.118 2.674l-.086.005zM98.154 74.6a1.192 1.192 0 01-.852-.334 1.202 1.202 0 01.804-2.066c.526-.024 52.972-2.227 70.233-2.227a1.195 1.195 0 011.195 1.2 1.195 1.195 0 01-1.195 1.2c-17.208 0-69.607 2.203-70.133 2.227h-.052z" fill="#D3DDE6"/>
  <path d="M98.154 83.494a1.192 1.192 0 01-.85-.338 1.202 1.202 0 01.811-2.062c.565 0 56.405-1.78 70.224-1.78a1.196 1.196 0 011.195 1.2 1.196 1.196 0 01-1.195 1.2c-13.767 0-69.583 1.76-70.147 1.78h-.038zM98.154 92.389a1.192 1.192 0 01-.849-.343 1.203 1.203 0 01.825-2.057c.597 0 59.855-1.335 70.209-1.335a1.2 1.2 0 010 2.4c-10.325 0-69.559 1.32-70.156 1.335h-.03zM98.154 101.283a1.202 1.202 0 010-2.4c.63 0 63.297-.888 70.199-.888.317 0 .621.126.845.351a1.203 1.203 0 010 1.697 1.193 1.193 0 01-.845.352c-6.883 0-69.535.883-70.166.888h-.033zM98.154 110.182c-.317 0-.621-.126-.845-.351a1.202 1.202 0 01.845-2.049c.664 0 66.738-.446 70.189-.446a1.2 1.2 0 01.845 2.048 1.189 1.189 0 01-.845.352c-3.441 0-69.505.442-70.175.446h-.014zM168.339 119.077H98.154a1.202 1.202 0 010-2.4h70.185c.317 0 .621.126.845.351a1.203 1.203 0 01-.845 2.049z" fill="#E0E0E0"/>
  <path d="M84.846 21.229a1.206 1.206 0 00.182-2.4 521.861 521.861 0 00-70.366-4.906 1.202 1.202 0 000 2.4 517.996 517.996 0 0170.003 4.891c.06.01.12.015.181.015zM84.846 30.123c.317.02.629-.088.867-.299a1.204 1.204 0 00-.718-2.1c-.354-.049-35.788-4.47-70.333-4.47a1.202 1.202 0 000 2.4c34.392 0 69.682 4.402 70.036 4.45l.148.02zM84.846 39.018a1.204 1.204 0 00.12-2.4c-.387-.039-39.22-4.018-70.304-4.018a1.202 1.202 0 000 2.4c30.96 0 69.673 3.965 70.06 4.008l.124.01zM84.846 47.912c.317.014.626-.1.86-.316a1.203 1.203 0 00-.76-2.084c-.425-.034-42.66-3.571-70.265-3.571-.317 0-.621.126-.845.351a1.203 1.203 0 00.845 2.049c27.523 0 69.659 3.528 70.084 3.562l.081.01zM84.846 56.806a1.193 1.193 0 001.236-1.159 1.206 1.206 0 00-.7-1.134 1.19 1.19 0 00-.455-.107c-.478-.033-46.098-3.124-70.265-3.124-.317 0-.621.126-.845.351a1.202 1.202 0 00.845 2.048c24.086 0 69.644 3.087 70.103 3.12l.081.005zM84.846 65.706a1.203 1.203 0 00.062-2.4c-.477-.03-49.535-2.679-70.265-2.679a1.202 1.202 0 000 2.4c20.65 0 69.625 2.65 70.117 2.674l.086.005zM84.846 74.6c.317.007.624-.114.852-.334a1.202 1.202 0 00-.804-2.066c-.526-.024-52.972-2.227-70.232-2.227-.317 0-.621.126-.845.351a1.202 1.202 0 00.845 2.049c17.208 0 69.606 2.203 70.132 2.227h.052zM84.846 83.494c.317.005.623-.116.85-.338a1.202 1.202 0 00-.811-2.062c-.565 0-56.405-1.78-70.223-1.78-.317 0-.621.126-.845.35a1.203 1.203 0 00.845 2.05c13.766 0 69.582 1.76 70.146 1.78h.038zM84.846 92.389a1.202 1.202 0 000-2.4c-.597 0-59.855-1.335-70.208-1.335a1.202 1.202 0 000 2.4c10.324 0 69.558 1.32 70.156 1.335h.052zM84.846 101.283a1.202 1.202 0 000-2.4c-.63 0-63.297-.888-70.199-.888-.317 0-.62.126-.845.351a1.202 1.202 0 00.845 2.049c6.883 0 69.535.883 70.166.888h.033zM84.846 110.182c.317 0 .621-.126.845-.351a1.202 1.202 0 00-.845-2.049c-.664 0-66.738-.446-70.19-.446-.316 0-.62.126-.844.351a1.204 1.204 0 000 1.697c.224.226.528.352.845.352 3.441 0 69.506.442 70.175.446h.014zM14.662 119.077h70.184a1.202 1.202 0 000-2.4H14.662c-.317 0-.621.126-.845.351a1.202 1.202 0 00.845 2.049z" fill="#F0F0F0"/>
  <path d="M99.2 50.989l-3.933-3.84-3.93 3.84V7.237l7.864-1.44v45.192z" fill="#B4BFCC"/>
  <path d="M10.718 134.72s-2.7-5.918.383-11.75 3.981-7.2 2.017-8.4c-1.965-1.2-2.868 4.665-2.868 4.665s-1.659-4.032-.287-8.251c1.372-4.219 2.227-11.093.358-11.827-1.869-.734-.358 8.573-1.979 11.746a27.465 27.465 0 01-1.587-6.922c-.224-3.389.125-8.803-1.352-10.19-1.477-1.388-2.419-.428-.956 7.051a78.19 78.19 0 011.434 13.56s-3.203-9.811-5.354-10.08c-2.15-.269-2.146 2.88-.306 5.649 1.84 2.77 5.392 7.68 5.975 10.234 0 0-3.518-7.382-6.692-5.122-3.174 2.261 2.753 6.72 5.392 8.333 2.639 1.613 4.47 11.712 4.47 11.712l1.352-.408z" fill="#407BFF"/>
  <path opacity=".2" d="M10.718 134.72s-2.7-5.918.383-11.75 3.981-7.2 2.017-8.4c-1.965-1.2-2.868 4.665-2.868 4.665s-1.659-4.032-.287-8.251c1.372-4.219 2.227-11.093.358-11.827-1.869-.734-.358 8.573-1.979 11.746a27.465 27.465 0 01-1.587-6.922c-.224-3.389.125-8.803-1.352-10.19-1.477-1.388-2.419-.428-.956 7.051a78.19 78.19 0 011.434 13.56s-3.203-9.811-5.354-10.08c-2.15-.269-2.146 2.88-.306 5.649 1.84 2.77 5.392 7.68 5.975 10.234 0 0-3.518-7.382-6.692-5.122-3.174 2.261 2.753 6.72 5.392 8.333 2.639 1.613 4.47 11.712 4.47 11.712l1.352-.408z" fill="#000"/>
  <path d="M8.6 137.12s2.63-5.952-.525-11.741-4.063-7.147-2.113-8.371c1.95-1.224 2.925 4.622 2.925 4.622s1.611-4.056.191-8.251c-1.42-4.195-2.36-11.04-.478-11.822 1.884-.783.478 8.563 2.123 11.712a27.427 27.427 0 001.5-6.941c.187-3.394-.229-8.798 1.23-10.21 1.457-1.41 2.418-.48 1.056 7.037a78.374 78.374 0 00-1.277 13.579s3.083-9.859 5.258-10.176c2.175-.316 2.18 2.856.373 5.64-1.807 2.784-5.349 7.786-5.898 10.335 0 0 3.427-7.435 6.62-5.218 3.193 2.218-2.653 6.763-5.292 8.415-2.638 1.651-4.33 11.779-4.33 11.779L8.6 137.12z" fill="#407BFF"/>
  <path d="M20.728 132.892H-.992l1.758 15.609H18.97l1.759-15.609z" fill="#263238"/>
  <path d="M180.006 106.136h-29.865v13.008h29.865v-13.008z" fill="#407BFF"/>
  <path opacity=".8" d="M180.006 106.136h-29.865v13.008h29.865v-13.008z" fill="#fff"/>
  <path opacity=".2" d="M152.535 107.408h27.471v-1.272h-27.442l-.029 1.272zM152.535 108.517l24.785.532-24.785.528v-1.06zM152.535 113.326l26.247.447-26.247.374v-.821zM152.535 116.139l26.013.528-26.013.533v-1.061zM180.006 110.37l-25.162.763 25.162.528v-1.291z" fill="#000"/>
  <path d="M113.349 112.573a5.915 5.915 0 001.724 4.165 5.862 5.862 0 004.151 1.724h62.164a.43.43 0 01.43.432v.48a.432.432 0 01-.43.437h-62.489a7.176 7.176 0 01-5.111-2.137 7.255 7.255 0 01-2.088-5.149 7.362 7.362 0 012.219-5.124 7.303 7.303 0 015.166-2.076h62.303a.43.43 0 01.43.432v.48a.435.435 0 01-.43.437h-61.992c-3.236-.005-6.052 2.649-6.047 5.899z" fill="#263238"/>
  <path opacity=".4" d="M113.349 112.573a5.915 5.915 0 001.724 4.165 5.862 5.862 0 004.151 1.724h62.164a.43.43 0 01.43.432v.48a.432.432 0 01-.43.437h-62.489a7.176 7.176 0 01-5.111-2.137 7.255 7.255 0 01-2.088-5.149 7.362 7.362 0 012.219-5.124 7.303 7.303 0 015.166-2.076h62.303a.43.43 0 01.43.432v.48a.435.435 0 01-.43.437h-61.992c-3.236-.005-6.052 2.649-6.047 5.899z" fill="#fff"/>
  <path d="M90.677 112.64a6.531 6.531 0 001.902 4.604 6.477 6.477 0 004.585 1.909h55.371v-13.017H97.164a6.473 6.473 0 00-4.582 1.906 6.53 6.53 0 00-1.904 4.598z" fill="#407BFF"/>
  <path opacity=".7" d="M152.535 106.136v13.027H97.164c-1.72 0-3.37-.686-4.587-1.908a6.526 6.526 0 01-1.9-4.606c0-1.727.684-3.384 1.9-4.605a6.471 6.471 0 014.587-1.908h55.371z" fill="#fff"/>
  <path opacity=".2" d="M152.535 109.577v-1.06l-55.19.446 55.19.614zM152.535 114.147v-.821l-24.774.893 24.774-.072zM152.536 117.2v-1.061l-39.947.615 39.947.446z" fill="#000"/>
  <path opacity=".2" d="M97.073 107.408a4.29 4.29 0 00-2.868 1.114c.345.673.618 1.381.813 2.112l55.371.436-55.257.13c.195.98.177 1.99-.052 2.962l37.284.82-37.643.437a13.546 13.546 0 01-1.247 2.583 6.511 6.511 0 01-2.448-3.235 6.542 6.542 0 01-.062-4.063 6.514 6.514 0 012.347-3.309 6.475 6.475 0 013.843-1.269h55.382v1.272l-55.463.01z" fill="#000"/>
  <path d="M91.194 112.573a5.91 5.91 0 001.72 4.166 5.85 5.85 0 004.15 1.723h56.403a.43.43 0 01.431.432v.48a.432.432 0 01-.431.437h-56.71a7.186 7.186 0 01-5.11-2.137 7.247 7.247 0 01-2.088-5.149 7.363 7.363 0 012.219-5.124 7.303 7.303 0 015.166-2.076h56.523a.43.43 0 01.431.432v.48a.435.435 0 01-.431.437H97.235c-3.23-.005-6.046 2.649-6.041 5.899z" fill="#263238"/>
  <path d="M97.346 110.917v5.222l1.883-1.886 1.821 1.829v-5.165h-3.704zM176.469 134.84h-80.61v13.027h80.61V134.84z" fill="#407BFF"/>
  <path opacity=".7" d="M176.469 134.84h-80.61v13.027h80.61V134.84z" fill="#fff"/>
  <path opacity=".2" d="M176.469 138.282v-1.061l-55.195.446 55.195.615z" fill="#000"/>
  <path opacity=".2" d="M113.88 134.84l-1.172 9.71 1.382-1.478a11.938 11.938 0 002.533 4.8 14.25 14.25 0 002.037-3.739l37.647-.432-37.284-.816c.116-.53.176-1.071.182-1.613a7.42 7.42 0 00-.13-1.354l55.238-.139-55.367-.437a10.815 10.815 0 00-.812-2.112 4.29 4.29 0 012.868-1.113h55.448v-1.272l-62.57-.005z" fill="#000"/>
  <path d="M115.122 141.277a5.915 5.915 0 001.724 4.165 5.865 5.865 0 004.151 1.724h56.404a.43.43 0 01.435.432v.48a.433.433 0 01-.127.309.444.444 0 01-.308.128H89.65a7.187 7.187 0 01-5.11-2.139 7.237 7.237 0 01-2.089-5.147 7.364 7.364 0 012.227-5.109 7.298 7.298 0 015.158-2.067h87.56a.426.426 0 01.402.265.433.433 0 01.033.167v.48a.436.436 0 01-.435.436h-56.227c-3.236-.028-6.051 2.626-6.047 5.876z" fill="#407BFF"/>
  <path opacity=".2" d="M115.122 141.277a5.915 5.915 0 001.724 4.165 5.865 5.865 0 004.151 1.724h56.404a.43.43 0 01.435.432v.48a.433.433 0 01-.127.309.444.444 0 01-.308.128H89.65a7.187 7.187 0 01-5.11-2.139 7.237 7.237 0 01-2.089-5.147 7.364 7.364 0 012.227-5.109 7.298 7.298 0 015.158-2.067h87.56a.426.426 0 01.402.265.433.433 0 01.033.167v.48a.436.436 0 01-.435.436h-56.227c-3.236-.028-6.051 2.626-6.047 5.876z" fill="#000"/>
  <path d="M115.123 141.277a5.906 5.906 0 001.724 4.165 5.861 5.861 0 004.15 1.724h56.404a.427.427 0 01.307.125.423.423 0 01.128.307v.48a.438.438 0 01-.435.437h-56.743a7.179 7.179 0 01-5.093-2.157 7.25 7.25 0 01-2.077-5.144 7.37 7.37 0 012.231-5.107 7.312 7.312 0 015.159-2.069h56.518a.427.427 0 01.308.125.436.436 0 01.127.307v.48a.438.438 0 01-.435.437h-56.227c-3.236-.014-6.051 2.64-6.046 5.89z" fill="#407BFF"/>
  <path d="M121.274 139.621v5.222l1.884-1.891 1.826 1.834v-5.165h-3.71z" fill="#407BFF"/>
  <path opacity=".2" d="M115.123 141.277a5.906 5.906 0 001.724 4.165 5.861 5.861 0 004.15 1.724h56.404a.427.427 0 01.307.125.423.423 0 01.128.307v.48a.438.438 0 01-.435.437h-56.743a7.179 7.179 0 01-5.093-2.157 7.25 7.25 0 01-2.077-5.144 7.37 7.37 0 012.231-5.107 7.312 7.312 0 015.159-2.069h56.518a.427.427 0 01.308.125.436.436 0 01.127.307v.48a.438.438 0 01-.435.437h-56.227c-3.236-.014-6.051 2.64-6.046 5.89z" fill="#fff"/>
  <path d="M182.783 120.488h-80.61v13.027h80.61v-13.027z" fill="#407BFF"/>
  <path opacity=".8" d="M182.783 120.488h-80.61v13.027h80.61v-13.027z" fill="#fff"/>
  <path opacity=".2" d="M182.783 123.93v-1.061l-55.189.446 55.189.615zM182.783 128.499v-.821l-24.774.893 24.774-.072zM182.783 131.547v-1.056l-39.946.615 39.946.441z" fill="#000"/>
  <path opacity=".2" d="M120.18 120.488l-1.171 9.71 1.376-1.478a11.954 11.954 0 002.538 4.8 14.234 14.234 0 002.037-3.744l37.642-.432-37.284-.816a7.88 7.88 0 00.182-1.613 7.494 7.494 0 00-.134-1.353l55.242-.14-55.366-.436a10.787 10.787 0 00-.818-2.112 4.29 4.29 0 012.868-1.114h55.506v-1.272H120.18z" fill="#000"/>
  <path d="M121.442 126.925a5.91 5.91 0 001.727 4.154 5.86 5.86 0 004.142 1.721h56.404a.434.434 0 01.308.125.442.442 0 01.127.307v.48a.436.436 0 01-.435.437H100.4a7.175 7.175 0 01-5.112-2.138 7.237 7.237 0 01-2.091-5.149 7.374 7.374 0 012.23-5.106 7.316 7.316 0 015.155-2.07h83.133a.435.435 0 01.402.266.431.431 0 01.033.166v.48a.433.433 0 01-.127.309.423.423 0 01-.308.128h-56.232c-3.231-.014-6.046 2.645-6.041 5.89z" fill="#407BFF"/>
  <path opacity=".4" d="M121.442 126.925a5.91 5.91 0 001.727 4.154 5.86 5.86 0 004.142 1.721h56.404a.434.434 0 01.308.125.442.442 0 01.127.307v.48a.436.436 0 01-.435.437H100.4a7.175 7.175 0 01-5.112-2.138 7.237 7.237 0 01-2.091-5.149 7.374 7.374 0 012.23-5.106 7.316 7.316 0 015.155-2.07h83.133a.435.435 0 01.402.266.431.431 0 01.033.166v.48a.433.433 0 01-.127.309.423.423 0 01-.308.128h-56.232c-3.231-.014-6.046 2.645-6.041 5.89z" fill="#fff"/>
  <path d="M121.442 126.925a5.91 5.91 0 001.727 4.154 5.86 5.86 0 004.143 1.721h56.404a.433.433 0 01.307.125.436.436 0 01.127.307v.48a.436.436 0 01-.434.437h-56.725a7.175 7.175 0 01-5.113-2.136 7.247 7.247 0 01-2.09-5.151 7.362 7.362 0 012.227-5.108 7.303 7.303 0 015.158-2.068h56.543a.434.434 0 01.401.266.413.413 0 01.033.166v.48a.438.438 0 01-.434.437h-56.232c-3.232-.014-6.047 2.645-6.042 5.89z" fill="#407BFF"/>
  <path d="M132.063 123.416v5.222l1.883-1.891 1.826 1.834v-5.165h-3.709z" fill="#263238"/>
  <path opacity=".6" d="M121.442 126.925a5.91 5.91 0 001.727 4.154 5.86 5.86 0 004.143 1.721h56.404a.433.433 0 01.307.125.436.436 0 01.127.307v.48a.436.436 0 01-.434.437h-56.725a7.175 7.175 0 01-5.113-2.136 7.247 7.247 0 01-2.09-5.151 7.362 7.362 0 012.227-5.108 7.303 7.303 0 015.158-2.068h56.543a.434.434 0 01.401.266.413.413 0 01.033.166v.48a.438.438 0 01-.434.437h-56.232c-3.232-.014-6.047 2.645-6.042 5.89z" fill="#fff"/>
  <path d="M175.575 77.432H145.71V90.44h29.865V77.432z" fill="#407BFF"/>
  <path opacity=".7" d="M175.575 77.432H145.71V90.44h29.865V77.432z" fill="#fff"/>
  <path opacity=".2" d="M148.104 78.704h27.471v-1.272h-27.442l-.029 1.272zM148.104 79.813l24.785.533-24.785.528v-1.061zM148.104 84.623l26.247.446-26.247.374v-.82zM148.104 87.44l26.013.528-26.013.528V87.44zM175.575 81.665l-25.162.764 25.162.528v-1.291z" fill="#000"/>
  <path d="M108.918 83.869a5.915 5.915 0 001.724 4.165 5.863 5.863 0 004.151 1.724h62.14a.43.43 0 01.43.432v.48a.433.433 0 01-.43.437h-62.465a7.183 7.183 0 01-5.112-2.146 7.24 7.24 0 01-2.082-5.155 7.373 7.373 0 012.231-5.098 7.311 7.311 0 015.149-2.068h62.303a.43.43 0 01.43.432v.48a.434.434 0 01-.43.437h-61.992c-3.236-.024-6.052 2.63-6.047 5.88z" fill="#407BFF"/>
  <path opacity=".4" d="M108.918 83.869a5.915 5.915 0 001.724 4.165 5.863 5.863 0 004.151 1.724h62.14a.43.43 0 01.43.432v.48a.433.433 0 01-.43.437h-62.465a7.183 7.183 0 01-5.112-2.146 7.24 7.24 0 01-2.082-5.155 7.373 7.373 0 012.231-5.098 7.311 7.311 0 015.149-2.068h62.303a.43.43 0 01.43.432v.48a.434.434 0 01-.43.437h-61.992c-3.236-.024-6.052 2.63-6.047 5.88z" fill="#fff"/>
  <path d="M86.242 83.946c0 1.727.683 3.384 1.9 4.606a6.472 6.472 0 004.586 1.907h55.377V77.432H92.733c-1.72 0-3.371.686-4.588 1.908a6.532 6.532 0 00-1.903 4.606z" fill="#407BFF"/>
  <path opacity=".5" d="M148.104 77.432v13.032H92.733a6.478 6.478 0 01-4.476-1.97 6.533 6.533 0 01-1.84-4.546c0-1.698.66-3.33 1.84-4.546a6.479 6.479 0 014.476-1.97h55.371z" fill="#fff"/>
  <path opacity=".2" d="M148.104 80.874v-1.061l-55.19.446 55.19.615zM148.104 85.443v-.82l-24.774.892 24.774-.072zM148.105 88.496V87.44l-39.947.61 39.947.446z" fill="#000"/>
  <path opacity=".2" d="M92.642 78.704c-1.06.004-2.081.4-2.868 1.114.345.673.618 1.38.813 2.112l55.371.436-55.242.14c.195.98.177 1.99-.053 2.961l37.284.821-37.642.437a13.25 13.25 0 01-1.253 2.582 6.516 6.516 0 01-2.44-3.237 6.545 6.545 0 01-.058-4.059 6.518 6.518 0 012.345-3.307 6.473 6.473 0 013.839-1.272h55.367v1.272H92.642z" fill="#000"/>
  <path d="M86.763 83.869a5.91 5.91 0 001.72 4.166 5.863 5.863 0 004.15 1.723h56.404a.43.43 0 01.43.432v.48a.434.434 0 01-.43.437h-56.73a7.175 7.175 0 01-5.11-2.137 7.232 7.232 0 01-2.088-5.15 7.363 7.363 0 012.225-5.111 7.302 7.302 0 015.16-2.069h56.543a.43.43 0 01.43.432v.48a.434.434 0 01-.43.437H92.805c-3.217-.024-6.047 2.63-6.042 5.88z" fill="#407BFF"/>
  <path d="M92.914 82.213v5.227l1.879-1.891 1.826 1.828v-5.164h-3.705zM189.762 91.784h-80.61v13.027h80.61V91.784z" fill="#407BFF"/>
  <path opacity=".7" d="M189.762 91.784h-80.61v13.027h80.61V91.784z" fill="#fff"/>
  <path opacity=".2" d="M189.762 95.226v-1.061l-55.19.446 55.19.615zM189.762 99.795v-.82l-24.775.892 24.775-.072zM189.762 102.848v-1.061l-39.946.615 39.946.446z" fill="#000"/>
  <path opacity=".2" d="M127.173 91.784l-1.167 9.711 1.377-1.479a11.885 11.885 0 002.538 4.8 14.175 14.175 0 002.032-3.734l37.647-.437-37.284-.816c.12-.53.182-1.07.186-1.613a7.497 7.497 0 00-.133-1.353l55.242-.14-55.372-.436a10.637 10.637 0 00-.812-2.112 4.292 4.292 0 012.868-1.114h55.448v-1.272l-62.57-.005z" fill="#000"/>
  <path d="M128.42 98.24a5.912 5.912 0 001.72 4.166 5.868 5.868 0 001.904 1.277 5.867 5.867 0 002.246.447h56.404a.427.427 0 01.43.432v.48a.43.43 0 01-.43.436h-87.751a7.17 7.17 0 01-5.11-2.137 7.236 7.236 0 01-2.089-5.149 7.363 7.363 0 012.227-5.109 7.302 7.302 0 015.158-2.067h87.565a.428.428 0 01.43.432v.48a.432.432 0 01-.43.437h-56.232c-3.236-.048-6.047 2.606-6.042 5.875z" fill="#263238"/>
  <path opacity=".2" d="M128.42 98.24a5.912 5.912 0 001.72 4.166 5.868 5.868 0 001.904 1.277 5.867 5.867 0 002.246.447h56.404a.427.427 0 01.43.432v.48a.43.43 0 01-.43.436h-87.751a7.17 7.17 0 01-5.11-2.137 7.236 7.236 0 01-2.089-5.149 7.363 7.363 0 012.227-5.109 7.302 7.302 0 015.158-2.067h87.565a.428.428 0 01.43.432v.48a.432.432 0 01-.43.437h-56.232c-3.236-.048-6.047 2.606-6.042 5.875z" fill="#fff"/>
  <path d="M128.42 98.24a5.912 5.912 0 001.72 4.166 5.868 5.868 0 001.904 1.277 5.87 5.87 0 002.246.447h56.404a.427.427 0 01.43.432v.48a.43.43 0 01-.43.436h-56.729a7.17 7.17 0 01-5.11-2.137 7.218 7.218 0 01-1.557-2.365 7.275 7.275 0 01-.532-2.784 7.368 7.368 0 012.228-5.109 7.302 7.302 0 015.158-2.067h56.542a.428.428 0 01.43.432v.48a.432.432 0 01-.43.437h-56.232c-3.236-.048-6.046 2.606-6.042 5.875z" fill="#263238"/>
  <path d="M134.572 96.565v5.222l1.879-1.886 1.826 1.829v-5.165h-3.705z" fill="#263238"/>
  <path opacity=".4" d="M128.42 98.24a5.912 5.912 0 001.72 4.166 5.868 5.868 0 001.904 1.277 5.87 5.87 0 002.246.447h56.404a.427.427 0 01.43.432v.48a.43.43 0 01-.43.436h-56.729a7.17 7.17 0 01-5.11-2.137 7.218 7.218 0 01-1.557-2.365 7.275 7.275 0 01-.532-2.784 7.368 7.368 0 012.228-5.109 7.302 7.302 0 015.158-2.067h56.542a.428.428 0 01.43.432v.48a.432.432 0 01-.43.437h-56.232c-3.236-.048-6.046 2.606-6.042 5.875z" fill="#fff"/>
  <path d="M85.998 104.73l3.14.763 1.592-4.359 1.444-3.964-3.58-1.532-1.377 4.81-1.219 4.282z" fill="#B97964"/>
  <path opacity=".2" d="M87.217 100.448l3.513.686 1.444-3.964-3.58-1.532-1.377 4.81z" fill="#000"/>
  <path d="M87.537 98.148l4.36 1.628s11.629-29.199 14.019-29.28c2.39-.082 26.725 11.13 32.825 4.9 6.099-6.23-2.72-21.235-2.72-21.235s-14.67-2.102-15.774 1.224a23.54 23.54 0 00-.622 2.986c-.167 1.017-.282 1.872-.282 1.872-.478-.115-15.181-3.931-20.984 0-5.903 3.984-10.822 37.905-10.822 37.905z" fill="#407BFF"/>
  <path d="M112.608 117.186l3.131-.807-.602-4.512-.559-4.138-3.872.351 1.008 4.824.894 4.282z" fill="#B97964"/>
  <path opacity=".2" d="M111.738 113l3.423-1.046-.569-4.181-3.881.326 1.027 4.901z" fill="#000"/>
  <path d="M93.694 98.154l-6.348-2.165-.273 2.611 4.819 1.709 1.802-2.155z" fill="#263238"/>
  <path d="M128.205 76.875s-.994.024-16.381-.696c0 0 2.3 19.315 3.552 33.778l-4.598.787S99.784 79.779 99.903 74.859c.12-4.92 5.736-6.36 5.736-6.36s10.961 6.36 22.566 8.376z" fill="#407BFF"/>
  <path opacity=".2" d="M128.205 76.875s-.994.024-16.381-.696c0 0 2.3 19.315 3.552 33.778l-4.598.787S99.784 79.779 99.903 74.859c.12-4.92 5.736-6.36 5.736-6.36s10.961 6.36 22.566 8.376z" fill="#000"/>
  <path d="M116.05 108.555l-6.324.72 1.219 2.491 5.119-.657-.014-2.554z" fill="#263238"/>
  <path opacity=".2" d="M119.343 60.224l8.581 1.795s-4.742-2.63-8.299-3.667c-.167 1.008-.282 1.872-.282 1.872z" fill="#000"/>
  <path d="M135.662 51.848l.354 2.294-15.774 1.22-.416-2.708 15.836-.806z" fill="#263238"/>
  <path d="M130.688 55.682l.779-.08-.408-3.987-.779.08.408 3.987z" fill="#407BFF"/>
  <path d="M123.8 54.422l3.46-.208-.157-2.635-3.461.208.158 2.635z" fill="#fff"/>
  <path d="M121.01 56.106l.779-.08-.408-3.987-.779.08.408 3.987z" fill="#407BFF"/>
  <path d="M80.793 110.864c.477-.222.99-.353 1.515-.389 0 0 1.816-1.075 3.618-5.242h2.022a1.66 1.66 0 011.554 1.114.96.96 0 01.057.283c-.02.491-.071.98-.153 1.464a40.35 40.35 0 01-1.185 4.8l-.345-.086.627-3.034c.205-1.032-.87-.033-1.372 1.003-.502 1.037-1.267 2.084-3.5 1.57-2.604-.638-3.656-1.013-2.838-1.483z" fill="#263238"/>
  <path d="M86.29 104.139s-2.524 5.309-3.982 6.336c0 0 1.95 1.167 3.982-1.44 2.629-3.36 3.27-2.424 3.27-2.424a9.438 9.438 0 00-.316-1.713c-.397-1.076-2.954-.759-2.954-.759z" fill="#B97964"/>
  <path d="M108.622 123.512a4.22 4.22 0 011.381-.739s1.511-1.474 2.276-5.952l1.964-.48a1.666 1.666 0 011.774.715c.054.081.094.17.119.264.096.475.161.956.196 1.44.099 1.64.099 3.285 0 4.925h-.354l-.11-3.092c-.043-1.051-.855.173-1.094 1.301-.239 1.128-.741 2.323-3.031 2.357-2.696.029-3.8-.091-3.121-.739z" fill="#263238"/>
  <path d="M112.379 115.674s-1.205 5.76-2.39 7.099c0 0 2.17.672 3.532-2.338 1.754-3.893 2.601-3.129 2.601-3.129a9.367 9.367 0 00-.713-1.594c-.621-.955-3.03-.038-3.03-.038zM149.778 68.216l2.27 5.117s4.603 1.804 4.603 2.424c0 .619-1.955 1.675-2.146 1.675-.191 0-4.302-.418-4.727-.802-.426-.384-.311-2.16-.311-2.16l-2.648-5.38 2.959-.874zM87.284 16.74L82.8 13.526s-.717-2.612-1.19-2.655c-.473-.043-4.823-1.752-5.483-1.752-.66 0-.664 3.869 0 4.69.665.82 3.676 2.184 4.436 2.069l5.02 4.137 1.7-3.273z" fill="#B97964"/>
  <path d="M117.637 26.94s-15.659-2.707-18.642-4.583C96.012 20.48 83.67 13.4 83.67 13.4l-1.386 4.93S94.94 29.014 99.726 31.04c4.785 2.026 17.586 6.566 17.586 6.566l.325-10.665z" fill="#263238"/>
  <path opacity=".1" d="M117.637 26.94l-.105 4.153-.22 6.513-3.762-1.373c-4.531-1.665-11.797-4.348-13.8-5.193-4.78-2.026-17.428-12.71-17.428-12.71l1.386-4.93s12.333 7.08 15.301 8.957c2.969 1.877 18.628 4.584 18.628 4.584z" fill="#fff"/>
  <path opacity=".2" d="M117.532 31.093l-.22 6.513-3.762-1.373a17.04 17.04 0 013.762-6.335l.22 1.195z" fill="#000"/>
  <path d="M134.749 17.379s.703 6.638-1.749 8.27c-2.452 1.632-14.493-.278-15.86-2.952-1.367-2.673 3.776-9.921 3.776-9.921l13.833 4.603z" fill="#263238"/>
  <path d="M117.637 26.94a28.452 28.452 0 009.082 1.009c5.062-.26 11.113 2.208 11.113 2.208l-2.174 21.696-15.832.787s-5.32-18.1-2.189-25.7z" fill="#407BFF"/>
  <path opacity=".6" d="M117.637 26.94a28.452 28.452 0 009.082 1.009c5.062-.26 11.113 2.208 11.113 2.208l-2.174 21.696-15.832.787s-5.32-18.1-2.189-25.7z" fill="#fff"/>
  <path d="M120.18 14.691s.889-10.56 9.66-6.72c10.994 4.8 2.256 17.635-3.121 15-5.378-2.635-6.539-8.28-6.539-8.28z" fill="#263238"/>
  <path opacity=".2" d="M122.642 28.54l.248 5.951 1.97-2.803s-.703 6.585-.292 10.171c0 0 .373-6.427 1.267-10.171l2.089 2.803 2.997-5.918s-4.852-1.747-8.279-.034z" fill="#000"/>
  <path d="M125.357 29.648l4.531-1.286c-2.791-1.92-1.381-6.24-1.381-6.24l-4.494 1.584c.205.627.365 1.269.478 1.92.478 2.812-.798 3.038-.798 3.038l1.664.984z" fill="#B97964"/>
  <path opacity=".2" d="M124.004 23.696c.204.627.364 1.27.478 1.92 2.146-.87 4.01-3.514 4.01-3.514l-4.488 1.594z" fill="#000"/>
  <path d="M126.944 10.198c-3.977-.883-5.736.96-6.927 5.021-1.501 5.064-1.171 8.972 4.049 8.981 7.108.005 9.498-12.533 2.878-14.002z" fill="#B97964"/>
  <path d="M122.637 15.57a8.804 8.804 0 01-1.525 1.396 1.135 1.135 0 00.956.686l.569-2.083z" fill="#A24E3F"/>
  <path d="M125.142 15.78c-.077.327.033.634.248.692.215.057.478-.168.54-.48.062-.312-.034-.639-.249-.691-.215-.053-.458.153-.539.48z" fill="#263238"/>
  <path d="M125.767 15.325l-.64-.451s.206.681.64.45zM121.136 14.72c-.077.326.033.633.248.686.215.053.478-.163.54-.48.062-.317-.033-.638-.248-.691-.215-.053-.478.154-.54.485z" fill="#263238"/>
  <path d="M121.742 14.24l-.64-.451s.206.7.64.45z" fill="#263238"/>
  <path d="M125.792 13.03a2.125 2.125 0 011.591.99M122.938 12.22a1.905 1.905 0 00-1.659 0" stroke="#263238" strokeWidth=".725" strokeLinecap="round" strokeLinejoin="round"/>
  <path d="M129.807 17.897s-1.133-3.696-.297-6.168c0 0-7.17-4.987-9.33 2.962 0 0 .803-7.306 7.677-5.942 6.873 1.363 4.631 11.4.439 13.608.01 0 2.209-2.15 1.511-4.46z" fill="#263238"/>
  <path d="M128.975 18.593c.14-.452.453-.831.871-1.052a1.774 1.774 0 011.356-.128c1.205.408 1.234 3.081-1.969 3.01-.449-.01-.612-.5-.258-1.83z" fill="#B97964"/>
  <path d="M121.351 19.17c.103.488.172.984.205 1.483h.263c1.186.105 1.774-.245 2.061-.658a1.58 1.58 0 00.248-.686c.018-.14.018-.283 0-.423a5.583 5.583 0 01-2.39.288c-.229.015-.387-.005-.387-.005z" fill="#263238"/>
  <path d="M121.757 19.198l.072.437c1.119.091 1.912 0 2.299-.302.018-.14.018-.283 0-.423a5.586 5.586 0 01-2.371.288z" fill="#fff"/>
  <path d="M121.819 20.677c1.186.105 1.774-.245 2.06-.658a3.881 3.881 0 00-1.343.149c-.286.09-.537.268-.717.509z" fill="#DE5753"/>
  <path d="M126.958 10.515s.158 6.931 4.302 7.762c4.144.83-.387-8.904-.387-8.904s-6.166-4.042-10.272-1.195c-4.107 2.846-.416 6.513-.416 6.513s.865-5.145 6.773-4.176z" fill="#263238"/>
  <path d="M127.101 10.06s-1.472 4.377 1.434 6.68" stroke="#263238" strokeWidth=".5" strokeLinecap="round" strokeLinejoin="round"/>
  <path d="M130.395 17.33l-3.824-.96a1.86 1.86 0 00.043-.393 1.926 1.926 0 00-.485-1.17 1.908 1.908 0 00-3.191.546.629.629 0 00-.416-.288.475.475 0 00-.234.03c.021-.1.032-.202.033-.303a1.924 1.924 0 00-.483-1.307 1.907 1.907 0 00-2.573-.261 1.923 1.923 0 00.633 3.387c.462.129.954.079 1.381-.14.427-.218.756-.59.923-1.04a.386.386 0 01.291-.126c.125 0 .249.144.364.37-.021.1-.032.2-.034.302.025.434.196.847.485 1.171a1.905 1.905 0 003.191-.547l3.824.96h.029c.015.002.031 0 .047-.003a.115.115 0 00.041-.022.12.12 0 00.046-.08.149.149 0 00-.004-.047.122.122 0 00-.102-.087l.015.009zm-9.967-.853a1.653 1.653 0 01-1.532-1.029 1.677 1.677 0 01.36-1.815 1.655 1.655 0 012.831 1.178c0 .442-.175.865-.486 1.178a1.655 1.655 0 01-1.173.488zm4.302 1.18c-.327 0-.646-.097-.918-.28a1.666 1.666 0 01-.704-1.704c.064-.323.222-.619.453-.85a1.651 1.651 0 012.823 1.173c-.001.441-.176.864-.487 1.175a1.655 1.655 0 01-1.171.486h.004z" fill="#263238"/>
  <path opacity=".8" d="M130.395 17.33l-3.824-.96a1.86 1.86 0 00.043-.393 1.926 1.926 0 00-.485-1.17 1.908 1.908 0 00-3.191.546.629.629 0 00-.416-.288.475.475 0 00-.234.03c.021-.1.032-.202.033-.303a1.924 1.924 0 00-.483-1.307 1.907 1.907 0 00-2.573-.261 1.923 1.923 0 00.633 3.387c.462.129.954.079 1.381-.14.427-.218.756-.59.923-1.04a.386.386 0 01.291-.126c.125 0 .249.144.364.37-.021.1-.032.2-.034.302.025.434.196.847.485 1.171a1.905 1.905 0 003.191-.547l3.824.96h.029c.015.002.031 0 .047-.003a.115.115 0 00.041-.022.12.12 0 00.046-.08.149.149 0 00-.004-.047.122.122 0 00-.102-.087l.015.009zm-9.967-.853a1.653 1.653 0 01-1.532-1.029 1.677 1.677 0 01.36-1.815 1.655 1.655 0 012.831 1.178c0 .442-.175.865-.486 1.178a1.655 1.655 0 01-1.173.488zm4.302 1.18c-.327 0-.646-.097-.918-.28a1.666 1.666 0 01-.704-1.704c.064-.323.222-.619.453-.85a1.651 1.651 0 012.823 1.173c-.001.441-.176.864-.487 1.175a1.655 1.655 0 01-1.171.486h.004z" fill="#fff"/>
  <path d="M128.674 26.71l-2.839 2.799 1.133 3.432 3.953-4.368-2.247-1.863zM124.568 27.296l.459 2.155-1.473 3.048-.917-3.96 1.931-1.243z" fill="#407BFF"/>
  <path d="M121.82 27.771s-1.114 5.093 2.834 6.24c3.948 1.147 7.596-5.808 7.596-5.808s4.302 1.013 6.056 2.15c0 0-.999 17.108-2.644 21.5l-15.75 1.349s-7.375-18.024-2.275-26.261l4.183.83z" fill="#263238"/>
  <path opacity=".1" d="M138.306 30.354s-.316 5.385-.885 10.886a86.44 86.44 0 01-1.252 8.803 14.172 14.172 0 01-.507 1.81l-15.75 1.349s-7.375-18.024-2.275-26.261l4.183.83s-1.114 5.093 2.834 6.24c3.948 1.147 7.596-5.808 7.596-5.808s4.292 1.013 6.056 2.15z" fill="#fff"/>
  <path opacity=".2" d="M137.421 41.24a86.445 86.445 0 01-1.252 8.803c-1.797-4.8-.034-10.512-.034-10.512l1.286 1.71z" fill="#000"/>
  <path d="M138.306 30.354c4.163 2.4 7.122 20.486 7.586 21.888.291.878 5.654 18 5.654 18l-4.302 2.001s-7.691-13.92-8.953-17.582a55.32 55.32 0 01-1.888-7.2s-1.109-7.43-.478-10.56a30.001 30.001 0 012.381-6.548z" fill="#263238"/>
  <path opacity=".1" d="M138.306 30.354c4.163 2.4 7.122 20.486 7.586 21.888.291.878 5.654 18 5.654 18l-4.302 2.001s-7.691-13.92-8.953-17.582a55.32 55.32 0 01-1.888-7.2s-1.109-7.43-.478-10.56a30.001 30.001 0 012.381-6.548z" fill="#fff"/>
  <path opacity=".6" d="M128.674 26.71l-2.839 2.799 1.133 3.432 3.953-4.368-2.247-1.863zM124.568 27.296l.459 2.155-1.473 3.048-.917-3.96 1.931-1.243z" fill="#fff"/>
  <defs>
    <radialGradient id="paint0_radial" cx="0" cy="0" r="1" gradientUnits="userSpaceOnUse" gradientTransform="matrix(0 900 -400 0 95 -160)">
      <stop stop-color="#E1E2FF"/>
      <stop offset="1" stop-color="#F5F5FF"/>
    </radialGradient>
  </defs>
</svg>
