<svg width="216" height="67" viewBox="0 0 216 67" fill="none" xmlns="http://www.w3.org/2000/svg">
<g clip-path="url(#clip0)">
<path d="M151.022 51.8559L150.83 51.8223L150.636 51.8387L25.6454 62.4168L2.05285 11.5283L30.2195 1.50601L211.744 5.71476L189.021 58.5249L151.022 51.8559Z" stroke="#555555" stroke-width="3"/>
<g filter="url(#filter0_d)">
<path d="M0 10.6667L29.9775 0L214 4.26667L189.93 60.2074L150.763 53.3333L24.726 64L0 10.6667Z" fill="#A2F0C9"/>
<path d="M151.022 51.8559L150.83 51.8223L150.636 51.8387L25.6454 62.4168L2.05285 11.5283L30.2195 1.50601L211.744 5.71476L189.021 58.5249L151.022 51.8559Z" stroke="#555555" stroke-width="3"/>
</g>
<path d="M82.936 39.232C82.3387 39.3387 81.688 39.4667 80.984 39.616C80.28 39.7653 79.6613 39.904 79.128 40.032C79.384 39.1147 79.6293 38.0907 79.864 36.96C80.12 35.808 80.3653 34.6027 80.6 33.344C80.856 32.0853 81.0907 30.816 81.304 29.536C81.5387 28.2347 81.7627 26.9867 81.976 25.792C82.424 22.9547 82.872 20.0213 83.32 16.992L94.04 16.448L93.112 20.384H88.088L87.096 26.08C87.7573 26.0587 88.3867 26.048 88.984 26.048C89.4747 26.048 89.976 26.048 90.488 26.048C91 26.048 91.3947 26.0373 91.672 26.016C91.608 26.6133 91.5227 27.2 91.416 27.776C91.3307 28.352 91.2453 28.928 91.16 29.504C90.8827 29.504 90.488 29.504 89.976 29.504C89.464 29.4827 88.9307 29.4613 88.376 29.44C87.8427 29.4187 87.2347 29.3973 86.552 29.376L85.08 38.816C84.3547 38.944 83.64 39.0827 82.936 39.232ZM97.2663 39.36C97.0743 39.36 96.6903 39.392 96.1143 39.456C95.5596 39.4987 94.9836 39.5627 94.3863 39.648C93.7889 39.712 93.2449 39.776 92.7543 39.84C92.2849 39.904 92.0289 39.9467 91.9863 39.968C92.1996 39.0507 92.4129 38.0373 92.6263 36.928C92.8609 35.7973 93.0956 34.624 93.3303 33.408C93.5649 32.1707 93.7889 30.9227 94.0023 29.664C94.2156 28.4053 94.4183 27.1893 94.6103 26.016C95.0583 23.2853 95.5063 20.48 95.9543 17.6L100.946 16.8C100.456 19.6587 99.9756 22.464 99.5063 25.216C99.3143 26.3893 99.1116 27.6053 98.8983 28.864C98.7063 30.1227 98.5036 31.3707 98.2903 32.608C98.0983 33.8453 97.9169 35.0507 97.7463 36.224C97.5756 37.376 97.4156 38.4213 97.2663 39.36ZM109.047 38.976C108.386 38.976 107.682 38.9973 106.935 39.04C106.21 39.0827 105.474 39.1467 104.727 39.232C103.98 39.3173 103.244 39.4347 102.519 39.584C101.815 39.712 101.175 39.872 100.599 40.064C100.727 39.104 100.876 38.0373 101.047 36.864C101.218 35.6907 101.41 34.4747 101.623 33.216C101.858 31.9573 102.082 30.688 102.295 29.408C102.53 28.128 102.764 26.9013 102.999 25.728C103.532 22.9333 104.098 20.0853 104.695 17.184L110.295 16.448C109.719 18.9227 109.164 21.3333 108.631 23.68C108.396 24.6827 108.162 25.728 107.927 26.816C107.692 27.8827 107.468 28.928 107.255 29.952C107.042 30.976 106.85 31.968 106.679 32.928C106.508 33.888 106.37 34.7413 106.263 35.488C106.796 35.4453 107.362 35.424 107.959 35.424C108.578 35.4027 109.122 35.392 109.591 35.392C109.612 35.7973 109.644 36.2027 109.687 36.608C109.73 36.992 109.772 37.344 109.815 37.664C109.879 37.984 109.922 38.272 109.943 38.528C109.986 38.7627 110.018 38.9227 110.039 39.008C109.868 39.008 109.698 39.008 109.527 39.008C109.378 38.9867 109.218 38.976 109.047 38.976ZM114.671 40.032C115.162 37.6853 115.631 35.3707 116.079 33.088C116.271 32.128 116.463 31.1253 116.655 30.08C116.847 29.0347 117.029 28.0107 117.199 27.008C117.391 25.984 117.551 25.0027 117.679 24.064C117.829 23.104 117.957 22.2293 118.063 21.44C117.573 21.376 117.071 21.3547 116.559 21.376C116.069 21.3973 115.578 21.3333 115.087 21.184C115.109 20.8427 115.119 20.448 115.119 20C115.119 19.552 115.13 19.104 115.151 18.656C115.173 18.1653 115.194 17.6427 115.215 17.088C115.77 17.1307 116.325 17.1627 116.879 17.184C117.434 17.2053 117.989 17.216 118.543 17.216C119.631 17.216 120.677 17.1947 121.679 17.152C122.703 17.088 123.642 17.024 124.495 16.96C125.37 16.8747 126.223 16.7787 127.055 16.672L126.703 18.4C126.597 18.8907 126.49 19.392 126.383 19.904C126.298 20.416 126.213 20.8533 126.127 21.216C125.658 21.344 125.178 21.44 124.687 21.504C124.218 21.5467 123.749 21.6107 123.279 21.696C123.13 22.4213 122.97 23.232 122.799 24.128C122.629 25.0027 122.458 25.92 122.287 26.88C122.138 27.8187 121.989 28.7787 121.839 29.76C121.69 30.7413 121.541 31.68 121.391 32.576C121.05 34.688 120.73 36.8747 120.431 39.136L114.671 40.032ZM125.561 40.032L129.753 17.28L139.865 16.416C139.716 16.8853 139.588 17.3653 139.481 17.856C139.374 18.2613 139.268 18.688 139.161 19.136C139.076 19.5627 139.001 19.9467 138.937 20.288C138.724 20.3093 138.414 20.3307 138.009 20.352C137.625 20.352 137.209 20.3627 136.761 20.384C136.313 20.384 135.854 20.384 135.385 20.384C134.937 20.384 134.542 20.384 134.201 20.384L133.081 26.112C133.742 26.0693 134.361 26.0373 134.937 26.016C135.406 25.9947 135.886 25.984 136.377 25.984C136.868 25.984 137.23 25.9733 137.465 25.952C137.38 26.5493 137.294 27.136 137.209 27.712C137.145 28.288 137.06 28.8747 136.953 29.472C136.74 29.4933 136.388 29.5147 135.897 29.536C135.428 29.536 134.948 29.5467 134.457 29.568C133.902 29.5893 133.294 29.6107 132.633 29.632L131.545 35.52L136.217 34.784L135.897 38.432L125.561 40.032ZM138.259 40.032C138.835 37.1947 139.39 34.4213 139.923 31.712C140.115 30.56 140.329 29.3653 140.563 28.128C140.798 26.8693 141.011 25.632 141.203 24.416C141.417 23.1787 141.609 21.9947 141.779 20.864C141.971 19.712 142.121 18.6667 142.227 17.728C143.443 17.344 144.755 17.0667 146.163 16.896C147.571 16.704 148.969 16.608 150.355 16.608C151.187 16.608 151.87 16.704 152.403 16.896C152.958 17.088 153.385 17.3653 153.683 17.728C154.003 18.0693 154.227 18.4747 154.355 18.944C154.483 19.4133 154.547 19.936 154.547 20.512C154.547 21.3653 154.398 22.208 154.099 23.04C153.801 23.8507 153.395 24.6293 152.883 25.376C152.393 26.1013 151.817 26.7733 151.155 27.392C150.515 27.9893 149.822 28.48 149.075 28.864C149.459 29.7173 149.865 30.656 150.291 31.68C150.739 32.6827 151.155 33.6427 151.539 34.56C151.966 35.6267 152.403 36.6933 152.851 37.76L147.891 39.488C147.465 38.1227 147.081 36.8427 146.739 35.648C146.59 35.1573 146.441 34.656 146.291 34.144C146.142 33.6107 146.003 33.1093 145.875 32.64C145.747 32.1707 145.641 31.7547 145.555 31.392C145.47 31.008 145.417 30.6987 145.395 30.464L144.979 30.592C144.851 31.2747 144.691 32.0747 144.499 32.992C144.329 33.9093 144.169 34.7947 144.019 35.648C143.827 36.6507 143.635 37.664 143.443 38.688L138.259 40.032ZM145.779 26.144C146.185 26.1013 146.675 25.9307 147.251 25.632C147.849 25.3333 148.414 24.9813 148.947 24.576C149.481 24.1493 149.939 23.712 150.323 23.264C150.707 22.816 150.899 22.4213 150.899 22.08C150.899 21.8453 150.825 21.664 150.675 21.536C150.526 21.3867 150.313 21.28 150.035 21.216C149.779 21.1307 149.491 21.0773 149.171 21.056C148.851 21.0347 148.521 21.024 148.179 21.024C147.945 21.024 147.699 21.0347 147.443 21.056C147.209 21.056 146.995 21.056 146.803 21.056L145.779 26.144ZM168.446 32.096C168.446 33.2907 168.211 34.3787 167.742 35.36C167.294 36.32 166.675 37.152 165.886 37.856C165.118 38.56 164.201 39.104 163.134 39.488C162.089 39.872 160.958 40.064 159.742 40.064C158.889 40.064 158.035 39.84 157.182 39.392C156.329 38.9227 155.507 38.1867 154.718 37.184L157.086 32.544C157.235 32.8213 157.459 33.1093 157.758 33.408C158.057 33.6853 158.387 33.9307 158.75 34.144C159.134 34.3573 159.507 34.5387 159.87 34.688C160.254 34.816 160.595 34.88 160.894 34.88C161.15 34.88 161.417 34.8373 161.694 34.752C161.971 34.6667 162.227 34.5387 162.462 34.368C162.697 34.1973 162.878 34.0053 163.006 33.792C163.155 33.5573 163.23 33.2907 163.23 32.992C163.23 32.48 163.059 32.0107 162.718 31.584C162.398 31.136 161.993 30.72 161.502 30.336C161.011 29.9307 160.478 29.5253 159.902 29.12C159.326 28.7147 158.793 28.288 158.302 27.84C157.833 27.392 157.427 26.8907 157.086 26.336C156.745 25.7813 156.574 25.1627 156.574 24.48C156.574 23.3707 156.905 22.336 157.566 21.376C158.227 20.416 159.049 19.5947 160.03 18.912C161.033 18.208 162.121 17.6533 163.294 17.248C164.467 16.8427 165.577 16.64 166.622 16.64C167.198 16.64 167.742 16.7147 168.254 16.864C168.766 16.992 169.203 17.216 169.566 17.536C169.95 17.8347 170.249 18.2187 170.462 18.688C170.697 19.1573 170.814 19.744 170.814 20.448C170.814 20.7467 170.782 21.0453 170.718 21.344C170.675 21.6427 170.633 21.9627 170.59 22.304L165.95 23.648C165.993 23.4773 166.025 23.3067 166.046 23.136C166.089 22.9653 166.11 22.7947 166.11 22.624C166.11 21.984 165.993 21.5253 165.758 21.248C165.545 20.9493 165.257 20.8 164.894 20.8C164.723 20.8 164.51 20.864 164.254 20.992C164.019 21.12 163.774 21.2907 163.518 21.504C163.283 21.696 163.081 21.9307 162.91 22.208C162.739 22.4853 162.654 22.784 162.654 23.104C162.654 23.616 162.793 24.0427 163.07 24.384C163.369 24.7253 163.731 25.0453 164.158 25.344C164.585 25.6427 165.043 25.952 165.534 26.272C166.046 26.5707 166.515 26.9653 166.942 27.456C167.369 27.9467 167.721 28.5653 167.998 29.312C168.297 30.0373 168.446 30.9653 168.446 32.096Z" fill="#555555"/>
<path d="M71.1725 20.5275C69.9197 20.5275 68.8978 21.5495 68.8978 22.8022C68.8978 23.0989 68.9637 23.3956 69.0626 23.6923L67.5791 24.4835C67.4472 24.5494 67.3483 24.6813 67.2824 24.8462L66.9527 25.9341C66.2604 25.8352 65.5681 25.7363 64.8428 25.6703V20.6923L66.5571 19.2747C66.9197 19.5055 67.3483 19.6374 67.7769 19.6374C69.0296 19.6374 70.0516 18.6154 70.0516 17.3626C70.0516 16.1099 69.0296 15.0879 67.7769 15.0879C66.5241 15.0879 65.5022 16.1099 65.5022 17.3626C65.5022 17.7253 65.6011 18.0549 65.7329 18.3516L63.8208 19.9341C63.689 20.033 63.5901 20.2308 63.5901 20.3956V25.5714C62.667 25.5055 61.8428 25.4725 61.2494 25.4725V18.4505C62.2055 18.1868 62.9307 17.2967 62.9307 16.2747C62.9307 15.022 61.9088 14 60.656 14C59.4033 14 58.3813 15.022 58.3813 16.2747C58.3813 17.3297 59.1066 18.1868 60.0626 18.4505V25.4725C59.634 25.4725 58.7109 25.4725 57.5571 25.5385V20.3956C57.5571 20.2308 57.4912 20.033 57.3263 19.9341L55.3813 18.3187C55.5131 18.022 55.612 17.6923 55.612 17.3626C55.612 16.1099 54.5901 15.0879 53.3373 15.0879C52.0846 15.0879 51.0626 16.1099 51.0626 17.3626C51.0626 18.6154 52.0846 19.6374 53.3373 19.6374C53.7989 19.6374 54.2274 19.5055 54.5901 19.2418L56.3044 20.6923V25.6044C55.612 25.6703 54.8538 25.7363 54.1285 25.8352L53.8318 24.8462C53.7989 24.6813 53.667 24.5494 53.5351 24.4835L52.0516 23.6923C52.1505 23.4286 52.2164 23.1319 52.2164 22.8022C52.2164 21.5495 51.1945 20.5275 49.9417 20.5275C48.689 20.5275 47.667 21.5495 47.667 22.8022C47.667 24.0549 48.689 25.0769 49.9417 25.0769C50.4362 25.0769 50.8978 24.9121 51.2604 24.6484L52.7439 25.4396L52.9088 26.033C50.9967 26.3956 49.4472 26.956 49.3483 27.8791V27.9121C49.3483 27.9451 49.3483 27.9451 49.3483 27.978C49.3483 28.3077 49.5461 28.6044 49.8758 28.8681L57.689 38.989V43.011C57.689 43.2088 57.7879 43.4066 57.9857 43.5385C58.0846 43.6044 58.1835 43.6374 58.2824 43.6374C58.3813 43.6374 58.4802 43.6044 58.5791 43.5714L62.2714 41.5934C62.4692 41.4945 62.6011 41.2967 62.6011 41.0659V39.022L70.4142 28.9011C70.7439 28.6374 70.9417 28.3407 70.9417 28.011C70.9417 27.978 70.9417 27.978 70.9417 27.9451C70.9417 27.9121 70.9417 27.9121 70.9417 27.9121C70.8428 27.0879 69.623 26.5604 68.0406 26.1978L68.2714 25.4396L69.7219 24.6484C70.0846 24.9121 70.5461 25.0769 71.0406 25.0769C72.2934 25.0769 73.3153 24.0549 73.3153 22.8022C73.4472 21.5495 72.4252 20.5275 71.1725 20.5275ZM67.8428 16.2747C68.4362 16.2747 68.8978 16.7363 68.8978 17.3297C68.8978 17.9231 68.4362 18.3846 67.8428 18.3846C67.2494 18.3846 66.7879 17.9231 66.7879 17.3297C66.7879 16.7363 67.2494 16.2747 67.8428 16.2747ZM52.3483 17.3626C52.3483 16.7692 52.8098 16.3077 53.4033 16.3077C53.9967 16.3077 54.4582 16.7692 54.4582 17.3626C54.4582 17.956 53.9967 18.4176 53.4033 18.4176C52.8428 18.4176 52.3483 17.9231 52.3483 17.3626ZM48.9857 22.8022C48.9857 22.2088 49.4472 21.7473 50.0406 21.7473C50.634 21.7473 51.0956 22.2088 51.0956 22.8022C51.0956 23.3956 50.634 23.8571 50.0406 23.8571C49.4472 23.8571 48.9857 23.3626 48.9857 22.8022ZM59.667 16.2747C59.667 15.6813 60.1285 15.2198 60.7219 15.2198C61.3153 15.2198 61.7769 15.6813 61.7769 16.2747C61.7769 16.8681 61.3153 17.3297 60.7219 17.3297C60.1285 17.3297 59.667 16.8681 59.667 16.2747ZM53.5022 27.6484C53.5681 27.9121 53.8318 28.0769 54.0956 28.0769C54.1615 28.0769 54.1945 28.0769 54.2604 28.044C54.5901 27.9451 54.7549 27.6154 54.689 27.2857L54.5901 26.956C55.1505 26.8901 55.7439 26.8242 56.4362 26.7582V27.4505C56.4362 27.7802 56.7 28.044 57.0296 28.044C57.3593 28.044 57.623 27.7802 57.623 27.4505V26.6923C58.3813 26.6593 59.2384 26.6264 60.1285 26.6264V29.2308C54.9197 29.2308 51.8208 28.5055 50.8978 28.044L50.7989 27.9121C51.1285 27.6813 52.0186 27.4176 53.3703 27.1538L53.5022 27.6484ZM61.645 38.3956C61.5791 38.4945 61.5131 38.6264 61.5131 38.7582V40.6374L59.0077 41.989V38.7582C59.0077 38.6264 58.9747 38.4945 58.8758 38.3956L52.2164 29.7582C55.1835 30.4505 59.5681 30.4835 60.2934 30.4835C61.0186 30.4835 65.4033 30.4505 68.3703 29.7582L61.645 38.3956ZM69.7549 27.9451L69.656 28.0769C68.7989 28.5385 65.9967 29.1978 61.3483 29.2637V26.6923C62.2055 26.6923 62.9637 26.7582 63.689 26.7912V27.8462C63.689 28.1758 63.9527 28.4396 64.2824 28.4396C64.612 28.4396 64.8758 28.1758 64.8758 27.8462V26.8901C65.5351 26.956 66.1285 27.022 66.623 27.1209L66.5571 27.3516C66.4582 27.6813 66.656 28.011 66.9857 28.1099C67.0516 28.1099 67.0846 28.1429 67.1505 28.1429C67.4142 28.1429 67.645 27.978 67.7439 27.7143L67.8428 27.3846C68.8318 27.5165 69.4582 27.7473 69.7549 27.9451ZM71.1725 23.8571C70.5791 23.8571 70.1175 23.3956 70.1175 22.8022C70.1175 22.2088 70.5791 21.7473 71.1725 21.7473C71.7659 21.7473 72.2274 22.2088 72.2274 22.8022C72.2604 23.3626 71.7659 23.8571 71.1725 23.8571Z" fill="#555555"/>
</g>
<defs>
<filter id="filter0_d" x="-2" y="-1" width="218" height="68" filterUnits="userSpaceOnUse" color-interpolation-filters="sRGB">
<feFlood flood-opacity="0" result="BackgroundImageFix"/>
<feColorMatrix in="SourceAlpha" type="matrix" values="0 0 0 0 0 0 0 0 0 0 0 0 0 0 0 0 0 0 127 0"/>
<feOffset dy="1"/>
<feGaussianBlur stdDeviation="1"/>
<feColorMatrix type="matrix" values="0 0 0 0 0 0 0 0 0 0 0 0 0 0 0 0 0 0 0.25 0"/>
<feBlend mode="normal" in2="BackgroundImageFix" result="effect1_dropShadow"/>
<feBlend mode="normal" in="SourceGraphic" in2="effect1_dropShadow" result="shape"/>
</filter>
<clipPath id="clip0">
<rect width="216" height="67" fill="white"/>
</clipPath>
</defs>
</svg>
