<?xml version="1.0" standalone="no"?>
<!DOCTYPE svg PUBLIC "-//W3C//DTD SVG 20010904//EN"
 "http://www.w3.org/TR/2001/REC-SVG-20010904/DTD/svg10.dtd">
<svg version="1.0" xmlns="http://www.w3.org/2000/svg"
 width="700.000000pt" height="700.000000pt" viewBox="0 0 700.000000 700.000000"
 preserveAspectRatio="xMidYMid meet">
<metadata>
Created by potrace 1.14, written by Peter Selinger 2001-2017
</metadata>
<g transform="translate(0.000000,700.000000) scale(0.100000,-0.100000)"
fill="#000000" stroke="none">
<path d="M817 6314 c-1 -1 -27 -4 -57 -8 -273 -30 -538 -219 -664 -473 -37
-75 -70 -167 -82 -228 -4 -22 -8 -969 -8 -2105 l-1 -2065 21 -85 c36 -144 128
-305 233 -411 99 -99 237 -178 391 -222 l85 -25 530 -2 c661 -2 3768 -2 4475
0 474 1 532 3 591 20 206 57 380 172 497 330 57 77 121 216 147 318 l22 87 -1
2075 -2 2075 -28 85 c-53 160 -118 270 -223 375 -140 141 -336 237 -509 251
-63 5 -5411 13 -5417 8z m5444 -427 c161 -55 272 -172 314 -334 13 -49 15
-318 15 -2052 -1 -1283 -4 -2012 -11 -2041 -30 -136 -130 -260 -265 -327 l-78
-38 -2705 -2 c-1843 -2 -2720 1 -2751 8 -66 15 -147 54 -197 95 -47 38 -110
119 -132 169 -41 91 -40 50 -38 2165 l2 2025 37 78 c69 146 209 252 351 267
40 4 1269 8 2733 8 l2661 0 64 -21z"/>
<path d="M1237 3665 c1 -572 2 -1102 2 -1177 l1 -137 255 -1 255 -1 1 178 c2
520 6 1189 8 1193 1 3 12 -13 24 -35 13 -22 83 -136 155 -253 73 -117 142
-229 155 -251 12 -21 67 -111 122 -200 55 -89 128 -207 162 -263 33 -55 66
-105 72 -111 6 -6 61 -10 130 -11 l120 -1 41 70 c22 39 123 205 223 370 100
165 238 394 307 507 69 114 127 208 130 208 3 0 6 -314 6 -698 l2 -697 253 -3
254 -2 -2 982 c0 541 -2 1071 -2 1179 l-1 196 -224 -1 c-124 -1 -227 -3 -229
-6 -5 -5 -133 -217 -171 -281 -12 -20 -174 -292 -361 -603 -336 -560 -340
-566 -358 -545 -16 20 -153 242 -294 477 -29 48 -57 94 -62 102 -50 81 -268
438 -276 452 -16 28 -206 340 -228 374 l-20 30 -226 0 -226 0 2 -1041z"/>
<path d="M4417 4702 c-18 -4 -18 2 -18 -331 0 -51 3 -96 6 -99 4 -4 194 -7
423 -7 l416 0 -1 -555 c-1 -305 -4 -589 -7 -630 -9 -143 -71 -246 -175 -293
-65 -30 -211 -33 -289 -6 -124 42 -210 103 -290 204 -13 16 -26 24 -30 19 -5
-5 -33 -38 -63 -74 -29 -36 -56 -67 -59 -70 -3 -3 -25 -30 -50 -60 -25 -30
-56 -66 -69 -80 -63 -68 -63 -65 19 -143 41 -39 98 -85 126 -103 121 -78 271
-138 374 -152 72 -9 365 -8 410 1 154 33 246 68 323 120 163 113 242 241 303
492 4 17 9 422 11 901 l4 871 -674 -1 c-370 0 -681 -2 -690 -4z"/>
</g>
</svg>
