<svg fill="none" xmlns="http://www.w3.org/2000/svg" viewBox="0 0 165 165">
  <defs/>
  <g clip-path="url(#clip0)" fill="#4683D5">
    <path d="M60.156 62.89a19.14 19.14 0 10-19.14 19.141h10.937a2.734 2.734 0 000-5.469H41.016a13.694 13.694 0 01-13.399-10.937h29.805a2.734 2.734 0 002.734-2.734zm-32.539-2.734a13.671 13.671 0 0126.797 0H27.617zM13.672 10.938a2.734 2.734 0 000 5.468h16.406a2.734 2.734 0 100-5.468H13.672zM150.391 32.813a2.736 2.736 0 00-1.512-2.447l-16.407-8.204a2.733 2.733 0 00-3.956 2.447v16.407a2.724 2.724 0 001.296 2.326 2.733 2.733 0 002.66.12l16.407-8.202a2.735 2.735 0 001.512-2.447zm-16.407 3.778v-7.557l7.558 3.779-7.558 3.778z"/>
    <path d="M164.062 32.813A27.34 27.34 0 00147.183 7.55 27.346 27.346 0 00109.9 27.478a27.35 27.35 0 0011.627 28.07 27.347 27.347 0 0015.192 4.608 27.028 27.028 0 0014.492-4.189c.593.4 1.237.72 1.914.952v96.184l-32.813-.273v-2.439a2.737 2.737 0 00-2.734-2.735h-8.203v-5.468h30.078a2.74 2.74 0 001.934-.801 2.74 2.74 0 00.801-1.934V73.828a2.738 2.738 0 00-2.735-2.734h-21.875a2.732 2.732 0 00-2.734 2.734 2.734 2.734 0 002.734 2.734h19.141V92.97H65.625V76.563h43.75a2.732 2.732 0 002.734-2.735 2.734 2.734 0 00-2.734-2.734H62.891a2.734 2.734 0 00-2.735 2.734v65.625a2.736 2.736 0 002.735 2.735h10.937a2.738 2.738 0 002.734-2.735 2.732 2.732 0 00-2.734-2.734h-8.203v-16.407h71.094v16.407H84.766a2.734 2.734 0 100 5.469h8.203v5.468h-8.203a2.734 2.734 0 00-2.735 2.735v2.734H46.484v-32.813h5.47a2.737 2.737 0 002.733-2.734 2.732 2.732 0 00-2.734-2.734h-5.469v-5.972a8.203 8.203 0 10-5.468 0v5.972H24.609V95.2a8.203 8.203 0 10-5.468 0v19.644h-5.47a8.205 8.205 0 01-8.202-8.203V24.538a13.53 13.53 0 008.203 2.806h68.36V62.89a2.734 2.734 0 005.468 0V2.734A2.734 2.734 0 0084.766 0H54.687a2.734 2.734 0 000 5.469h27.344v5.468H43.75a2.734 2.734 0 000 5.47h38.281v5.468h-68.36a8.203 8.203 0 010-16.406H43.75a2.734 2.734 0 100-5.469H13.672A13.688 13.688 0 000 13.672v92.969a13.688 13.688 0 0013.672 13.671h5.469v10.938a2.736 2.736 0 002.734 2.734h19.14v21.875a2.735 2.735 0 002.735 2.735h38.281v2.734a2.736 2.736 0 002.735 2.734h32.812c.725 0 1.421-.288 1.934-.8.512-.513.8-1.209.8-1.934v-3.027l35.526.293h.021a2.734 2.734 0 002.735-2.735v-98.94a8.151 8.151 0 005.242-5.789 8.146 8.146 0 00-2.038-7.539 27.349 27.349 0 002.264-10.779zm-98.437 82.031V98.438h71.094v16.406H65.625zM43.75 98.438a2.735 2.735 0 110 5.469 2.735 2.735 0 010-5.47zM21.875 84.766a2.735 2.735 0 110 5.469 2.735 2.735 0 010-5.47zm2.734 35.546h16.407v8.204H24.609v-8.204zm90.235 38.282H87.5v-5.469h8.203a2.734 2.734 0 002.734-2.734v-8.203h5.469v8.203a2.733 2.733 0 002.735 2.734h8.203v5.469zm0-125.781a21.872 21.872 0 0121.875-21.876 21.877 21.877 0 0121.875 21.876 21.64 21.64 0 01-1.663 8.312 7.727 7.727 0 00-1.072-.11 8.202 8.202 0 00-8.203 8.204c.012.756.129 1.507.348 2.231a21.582 21.582 0 01-11.285 3.237 21.9 21.9 0 01-21.875-21.874zm41.015 19.14a2.736 2.736 0 01-2.681-3.268 2.734 2.734 0 112.681 3.268z"/>
    <path d="M103.906 131.25a2.735 2.735 0 100-5.47 2.735 2.735 0 000 5.47zM114.844 131.25a2.734 2.734 0 100-5.468 2.734 2.734 0 000 5.468zM125.781 131.25a2.735 2.735 0 100-5.47 2.735 2.735 0 000 5.47zM92.969 128.516a2.735 2.735 0 00-2.735-2.735H73.828a2.734 2.734 0 100 5.469h16.406a2.734 2.734 0 002.735-2.734zM103.906 109.375a2.735 2.735 0 100-5.47 2.735 2.735 0 000 5.47zM114.844 109.375a2.734 2.734 0 100-5.468 2.734 2.734 0 000 5.468zM125.781 109.375a2.735 2.735 0 100-5.47 2.735 2.735 0 000 5.47zM90.234 103.906H73.828a2.734 2.734 0 100 5.469h16.406a2.734 2.734 0 100-5.469zM103.906 87.5a2.735 2.735 0 100-5.47 2.735 2.735 0 000 5.47zM114.844 87.5a2.734 2.734 0 100-5.468 2.734 2.734 0 000 5.468zM125.781 87.5a2.735 2.735 0 100-5.47 2.735 2.735 0 000 5.47zM73.828 82.031a2.734 2.734 0 000 5.469h16.406a2.734 2.734 0 000-5.469H73.828z"/>
  </g>
  <defs>
    <clipPath id="clip0">
      <path fill="white" d="M0 0h164.062v164.062H0z"/>
    </clipPath>
  </defs>
</svg>
