<svg fill="none" xmlns="http://www.w3.org/2000/svg" viewBox="0 0 147 147">
  <defs/>
  <g clip-path="url(#clip0)" fill="#4EA77A">
    <path d="M81.853 8.352a3.341 3.341 0 00-3.341 3.341v6.682a3.341 3.341 0 006.681 0v-3.239a58.54 58.54 0 0155.024 55.023h-3.239a3.339 3.339 0 00-3.338 3.341 3.34 3.34 0 003.338 3.34h3.239a58.545 58.545 0 01-55.024 55.024v-3.239a3.339 3.339 0 00-3.34-3.341 3.34 3.34 0 00-3.341 3.341v6.682a3.34 3.34 0 003.34 3.341c35.923 0 65.148-29.226 65.148-65.148S117.775 8.352 81.853 8.352z"/>
    <path d="M89.648 74.057a7.23 7.23 0 00-.263-1.912l26.2-23.398a2.003 2.003 0 00.205-2.78 2.005 2.005 0 00-2.77-.3L85.082 67.333a7.236 7.236 0 104.566 6.723zm-10.58 0a3.33 3.33 0 012.366-3.18c.145-.044.291-.08.44-.107a3.295 3.295 0 013.819 3.86c-.034.172-.08.343-.138.51a3.332 3.332 0 01-6.487-1.083zM61.9 70.716H2.69C1.205 70.716 0 72.212 0 74.056c0 1.846 1.205 3.342 2.691 3.342H61.9c1.486 0 2.69-1.496 2.69-3.341 0-1.845-1.204-3.341-2.69-3.341zM62.106 104.125H17.385c-1.372 0-2.485 1.496-2.485 3.341 0 1.845 1.113 3.341 2.485 3.341h44.721c1.372 0 2.485-1.496 2.485-3.341 0-1.845-1.113-3.341-2.485-3.341zM62.106 37.307H17.385c-1.372 0-2.485 1.496-2.485 3.34 0 1.846 1.113 3.342 2.485 3.342h44.721c1.372 0 2.485-1.496 2.485-3.341 0-1.845-1.113-3.341-2.485-3.341z"/>
  </g>
  <defs>
    <clipPath id="clip0">
      <path fill="white" d="M0 0h147v147H0z"/>
    </clipPath>
  </defs>
</svg>
